<svg width="16" height="16" viewBox="0 0 16 16" fill="none" xmlns="http://www.w3.org/2000/svg">
<path d="M12.6906 7.33008C13.0607 7.33008 13.3606 7.63004 13.3606 8.00008C13.3606 8.37012 13.0607 8.67008 12.6906 8.67008L3.31063 8.67008C2.9406 8.67008 2.64062 8.37012 2.64062 8.00008C2.64062 7.63004 2.9406 7.33008 3.31063 7.33008L12.6906 7.33008Z" fill="white"/>
<path d="M7.51263 2.83676C7.75792 2.59146 8.14585 2.57632 8.40903 2.79096L8.46008 2.83676L13.1501 7.52678C13.4117 7.78841 13.4117 8.21252 13.1501 8.47416L8.46008 13.1642C8.19844 13.4259 7.77427 13.4259 7.51263 13.1642C7.251 12.9025 7.251 12.4784 7.51263 12.2168L11.7289 8.00047L7.51263 3.78418L7.46687 3.73314C7.2522 3.46999 7.26735 3.08206 7.51263 2.83676Z" fill="white"/>
</svg>
