<svg width="12" height="12" viewBox="0 0 12 12" fill="none" xmlns="http://www.w3.org/2000/svg">
<path d="M3.14637 3.14637C3.32942 2.96331 3.61893 2.95201 3.81531 3.11219L3.8534 3.14637L8.85338 8.14638L8.88758 8.18448C9.04778 8.38083 9.03648 8.67033 8.85338 8.85338C8.67033 9.03648 8.38083 9.04778 8.18448 8.88758L8.14638 8.85338L3.14637 3.8534L3.11219 3.81531C2.95201 3.61893 2.96331 3.32942 3.14637 3.14637Z" fill="#EF4444"/>
<path d="M8 3.5C8 3.22386 8.22385 3 8.5 3C8.77615 3 9 3.22386 9 3.5L9 8.5C9 8.77615 8.77615 9 8.5 9L3.5 9C3.22386 9 3 8.77615 3 8.5C3 8.22385 3.22386 8 3.5 8H8L8 3.5Z" fill="#EF4444"/>
</svg>
