<svg width="12" height="12" viewBox="0 0 12 12" fill="none" xmlns="http://www.w3.org/2000/svg">
<path d="M8 8.5L8 4L3.5 4C3.22386 4 3 3.77614 3 3.5C3 3.22386 3.22386 3 3.5 3L8.5 3L8.55125 3.00244C8.80335 3.0281 9 3.24116 9 3.5L9 8.5C9 8.77615 8.77615 9 8.5 9C8.22385 9 8 8.77615 8 8.5Z" fill="#171A1F"/>
<path d="M8.18454 3.11219C8.38094 2.95201 8.67044 2.96331 8.85349 3.14637C9.03654 3.32943 9.04784 3.61893 8.88764 3.81531L8.85349 3.8534L3.85348 8.85338C3.65821 9.04868 3.34171 9.04868 3.14645 8.85338C2.95118 8.65813 2.95118 8.34163 3.14645 8.14638L8.14644 3.14637L8.18454 3.11219Z" fill="#171A1F"/>
</svg>
