<svg width="20" height="20" viewBox="0 0 20 20" fill="none" xmlns="http://www.w3.org/2000/svg">
<path d="M12.7549 1.92363C13.0587 1.61976 13.5393 1.60101 13.8652 1.8669L13.9285 1.92363L17.2485 5.24363L17.3053 5.30686C17.5711 5.63286 17.5524 6.11342 17.2485 6.4173L13.9285 9.73727C13.6044 10.0615 13.079 10.0615 12.7549 9.73727C12.4307 9.41316 12.4307 8.88777 12.7549 8.56365L15.488 5.83047L12.7549 3.0973L12.6981 3.03408C12.4322 2.70808 12.4509 2.22751 12.7549 1.92363Z" fill="white"/>
<path d="M16.6412 5C17.0997 5 17.4712 5.37161 17.4712 5.83C17.4712 6.28839 17.0997 6.66 16.6412 6.66L3.36125 6.66C2.90286 6.66 2.53125 6.28839 2.53125 5.83C2.53125 5.37161 2.90286 5 3.36125 5L16.6412 5Z" fill="white"/>
<path d="M6.13805 10.2067C6.46405 9.94085 6.94462 9.95961 7.2485 10.2635C7.55237 10.5673 7.57113 11.0479 7.30523 11.3739L7.2485 11.4371L4.51533 14.1703L7.2485 16.9035L7.30523 16.9667C7.57113 17.2927 7.55237 17.7732 7.2485 18.0771C6.94462 18.381 6.46405 18.3998 6.13805 18.1339L6.07482 18.0771L2.75482 14.7571C2.43069 14.433 2.43069 13.9076 2.75482 13.5835L6.07482 10.2635L6.13805 10.2067Z" fill="white"/>
<path d="M16.6412 13.3408C17.0997 13.3408 17.4712 13.7124 17.4712 14.1708C17.4712 14.6292 17.0997 15.0008 16.6412 15.0008L3.36125 15.0008C2.90286 15.0008 2.53125 14.6292 2.53125 14.1708C2.53125 13.7124 2.90286 13.3408 3.36125 13.3408L16.6412 13.3408Z" fill="white"/>
</svg>
