<svg width="18" height="18" viewBox="0 0 18 18" fill="none" xmlns="http://www.w3.org/2000/svg">
<path d="M9.6896 15.3059C9.9119 14.9975 10.3362 14.9016 10.6725 15.0957C11.0089 15.2898 11.1382 15.7055 10.9823 16.0522L10.9472 16.1203C10.7497 16.4622 10.4658 16.7461 10.1239 16.9436C9.782 17.141 9.39373 17.2452 8.99893 17.2453C8.60405 17.2453 8.21593 17.141 7.87393 16.9436C7.5746 16.7708 7.31968 16.5318 7.12832 16.2456L7.04996 16.1203L7.0148 16.0522C6.85892 15.7055 6.98831 15.2898 7.32461 15.0957C7.66093 14.9016 8.0852 14.9975 8.3075 15.3059L8.34928 15.3703L8.4035 15.4524C8.4632 15.5301 8.53843 15.5956 8.62393 15.645C8.73785 15.7107 8.86738 15.7453 8.99893 15.7453C9.13048 15.7452 9.26 15.7107 9.37393 15.645C9.48785 15.5792 9.58205 15.4842 9.64783 15.3703L9.6896 15.3059Z" fill="white"/>
<path d="M12.7492 6.00488C12.7492 5.01045 12.3544 4.05675 11.6513 3.35351C10.948 2.65025 9.99378 2.25488 8.99921 2.25488C8.00471 2.25494 7.05104 2.6503 6.34782 3.35351C5.64462 4.05677 5.2492 5.01037 5.2492 6.00488L5.24626 6.33008C5.21415 7.92376 4.94439 9.06293 4.52409 9.95266C4.08125 10.8901 3.49359 11.4953 2.99992 12.0049L14.9992 12.0049C14.5045 11.495 13.9176 10.8895 13.4751 9.95266C13.0266 9.00338 12.7492 7.77046 12.7492 6.00488ZM14.2492 6.00488C14.2492 7.61341 14.5011 8.61406 14.8308 9.31178C15.0786 9.83633 15.384 10.2216 15.7316 10.5986L16.0927 10.9781L16.1088 10.9956C16.3044 11.2106 16.4336 11.4777 16.4802 11.7647C16.5267 12.0515 16.4892 12.3456 16.3718 12.6113C16.2542 12.8771 16.0616 13.1032 15.8181 13.2617C15.6048 13.4005 15.3602 13.483 15.1076 13.5012L14.9992 13.5049L2.99919 13.5049C2.70848 13.5047 2.42382 13.4198 2.18034 13.261C1.93686 13.1021 1.74465 12.8759 1.62737 12.6098C1.51012 12.3439 1.47276 12.0494 1.5197 11.7625C1.56666 11.4757 1.69595 11.2088 1.89177 10.9941L1.90715 10.9773L2.26824 10.5986C2.61535 10.2218 2.91986 9.83633 3.16765 9.31178C3.47664 8.65763 3.71737 7.73731 3.74626 6.29932L3.74919 6.00488C3.74919 4.61249 4.30271 3.2768 5.28728 2.29223C6.27177 1.30789 7.60698 0.754935 8.99921 0.754883C10.3915 0.754883 11.7273 1.30773 12.7119 2.29223C13.6964 3.2768 14.2492 4.61249 14.2492 6.00488Z" fill="white"/>
</svg>
