<svg width="16" height="16" viewBox="0 0 16 16" fill="none" xmlns="http://www.w3.org/2000/svg">
<path d="M8.61605 13.6018C8.81463 13.3263 9.19365 13.2406 9.49408 13.414C9.79458 13.5875 9.91015 13.9588 9.77086 14.2686L9.7395 14.3294C9.56309 14.6348 9.30943 14.8884 9.00404 15.0649C8.69859 15.2412 8.35173 15.3343 7.99904 15.3344C7.64629 15.3344 7.29956 15.2412 6.99404 15.0649C6.72665 14.9105 6.49891 14.697 6.32797 14.4413L6.25796 14.3294L6.22655 14.2686C6.0873 13.9588 6.20289 13.5875 6.50332 13.414C6.80376 13.2406 7.18278 13.3263 7.38137 13.6018L7.41869 13.6594L7.46713 13.7327C7.52046 13.8022 7.58766 13.8607 7.66404 13.9047C7.76582 13.9634 7.88152 13.9944 7.99904 13.9944C8.11656 13.9943 8.23227 13.9635 8.33404 13.9047C8.43582 13.846 8.51997 13.7612 8.57873 13.6594L8.61605 13.6018Z" fill="#94A3B8"/>
<path d="M11.3501 5.32477C11.3501 4.43641 10.9974 3.58443 10.3693 2.95621C9.741 2.32796 8.88856 1.97477 8.00007 1.97477C7.11165 1.97481 6.25971 2.328 5.6315 2.95621C5.00331 3.58445 4.65006 4.43633 4.65006 5.32477L4.64744 5.61527C4.61876 7.03896 4.37777 8.05662 4.00231 8.85144C3.6067 9.68888 3.08172 10.2295 2.64071 10.6848L13.3601 10.6848C12.9181 10.2292 12.3939 9.68834 11.9985 8.85144C11.5978 8.00343 11.3501 6.90201 11.3501 5.32477ZM12.6901 5.32477C12.6901 6.76171 12.9151 7.65563 13.2096 8.27893C13.431 8.74753 13.7038 9.09171 14.0143 9.42852L14.3369 9.76747L14.3513 9.78315C14.5261 9.97524 14.6414 10.2138 14.6831 10.4702C14.7246 10.7264 14.6912 10.9891 14.5862 11.2265C14.4812 11.4639 14.3091 11.6659 14.0916 11.8076C13.9011 11.9315 13.6825 12.0052 13.4569 12.0215L13.3601 12.0248L2.64006 12.0248C2.38036 12.0246 2.12606 11.9488 1.90856 11.8069C1.69105 11.665 1.51933 11.4628 1.41456 11.2252C1.30982 10.9876 1.27644 10.7245 1.31838 10.4682C1.36034 10.212 1.47583 9.97363 1.65076 9.78181L1.6645 9.7668L1.98707 9.42852C2.29716 9.09184 2.56919 8.74753 2.79055 8.27893C3.06658 7.69456 3.28163 6.8724 3.30744 5.58779L3.31006 5.32477C3.31006 4.0809 3.80454 2.88768 4.68408 2.00813C5.56357 1.12878 6.75635 0.634813 8.00007 0.634766C9.24386 0.634766 10.4371 1.12864 11.3167 2.00813C12.1962 2.88768 12.6901 4.0809 12.6901 5.32477Z" fill="#94A3B8"/>
</svg>
