<svg width="16" height="16" viewBox="0 0 16 16" fill="none" xmlns="http://www.w3.org/2000/svg">
<path d="M10.0084 13.3599L10.0084 2.63988C10.0084 2.46219 9.93782 2.29182 9.81213 2.16617C9.70218 2.0562 9.55793 1.98835 9.4045 1.97315L9.33844 1.96988L6.65844 1.96988C6.48074 1.96988 6.31038 2.04052 6.18473 2.16617C6.05908 2.29182 5.98844 2.46219 5.98844 2.63988L5.98844 13.3599C5.98844 13.7299 5.68846 14.0299 5.31844 14.0299C4.94841 14.0299 4.64844 13.7299 4.64844 13.3599L4.64844 2.63988C4.64844 2.1068 4.86036 1.5957 5.23731 1.21875C5.61426 0.841804 6.12535 0.629883 6.65844 0.629883L9.33844 0.629883L9.53736 0.639698C9.99738 0.685433 10.4298 0.888978 10.7596 1.21875C11.1365 1.5957 11.3484 2.1068 11.3484 2.63988L11.3484 13.3599C11.3484 13.7299 11.0485 14.0299 10.6784 14.0299C10.3084 14.0299 10.0084 13.7299 10.0084 13.3599Z" fill="#94A3B8"/>
<path d="M14.0289 5.31957C14.0289 4.94954 13.7289 4.64957 13.3589 4.64957L2.63891 4.64957C2.26888 4.64957 1.96891 4.94954 1.96891 5.31957L1.96891 12.0196C1.96891 12.3896 2.26888 12.6896 2.63891 12.6896L13.3589 12.6896C13.7289 12.6896 14.0289 12.3896 14.0289 12.0196L14.0289 5.31957ZM15.3689 12.0196C15.3689 13.1297 14.469 14.0296 13.3589 14.0296L2.63891 14.0296C1.52882 14.0296 0.628906 13.1297 0.628906 12.0196L0.628906 5.31957C0.628906 4.20948 1.52882 3.30957 2.63891 3.30957L13.3589 3.30957C14.469 3.30957 15.3689 4.20948 15.3689 5.31957L15.3689 12.0196Z" fill="#94A3B8"/>
</svg>
