<svg width="18" height="18" viewBox="0 0 18 18" fill="none" xmlns="http://www.w3.org/2000/svg">
<path d="M11.25 15L11.25 3C11.25 2.80108 11.1709 2.61038 11.0302 2.46973C10.9072 2.34662 10.7457 2.27068 10.574 2.25366L10.5 2.25L7.5 2.25C7.30108 2.25 7.11038 2.32907 6.96973 2.46973C6.82907 2.61038 6.75 2.80108 6.75 3L6.75 15C6.75 15.4142 6.41421 15.75 6 15.75C5.58579 15.75 5.25 15.4142 5.25 15L5.25 3C5.25 2.40326 5.48723 1.83114 5.90918 1.40918C6.33114 0.987225 6.90326 0.75 7.5 0.75L10.5 0.75L10.7227 0.760987C11.2376 0.812182 11.7217 1.04003 12.0908 1.40918C12.5128 1.83114 12.75 2.40326 12.75 3L12.75 15C12.75 15.4142 12.4142 15.75 12 15.75C11.5858 15.75 11.25 15.4142 11.25 15Z" fill="white"/>
<path d="M15.75 6C15.75 5.58579 15.4142 5.25 15 5.25L3 5.25C2.58579 5.25 2.25 5.58579 2.25 6L2.25 13.5C2.25 13.9142 2.58579 14.25 3 14.25L15 14.25C15.4142 14.25 15.75 13.9142 15.75 13.5L15.75 6ZM17.25 13.5C17.25 14.7427 16.2427 15.75 15 15.75L3 15.75C1.75736 15.75 0.75 14.7427 0.75 13.5L0.75 6C0.75 4.75736 1.75736 3.75 3 3.75L15 3.75C16.2427 3.75 17.25 4.75736 17.25 6L17.25 13.5Z" fill="white"/>
</svg>
