<svg width="32" height="32" viewBox="0 0 32 32" fill="none" xmlns="http://www.w3.org/2000/svg">
<path d="M14.6602 16.0002C14.6602 15.2601 15.2601 14.6602 16.0002 14.6602C16.7402 14.6602 17.3402 15.2601 17.3402 16.0002C17.3402 16.7402 16.7402 17.3402 16.0002 17.3402C15.2601 17.3402 14.6602 16.7402 14.6602 16.0002Z" fill="#171A1F"/>
<path d="M14.6602 11.3302C14.6602 10.5902 15.2601 9.99023 16.0002 9.99023C16.7402 9.99023 17.3402 10.5902 17.3402 11.3302C17.3402 12.0703 16.7402 12.6702 16.0002 12.6702C15.2601 12.6702 14.6602 12.0703 14.6602 11.3302Z" fill="#171A1F"/>
<path d="M14.6602 20.6701C14.6602 19.93 15.2601 19.3301 16.0002 19.3301C16.7402 19.3301 17.3402 19.93 17.3402 20.6701C17.3402 21.4102 16.7402 22.0101 16.0002 22.0101C15.2601 22.0101 14.6602 21.4102 14.6602 20.6701Z" fill="#171A1F"/>
</svg>
