<svg width="32" height="32" viewBox="0 0 32 32" fill="none" xmlns="http://www.w3.org/2000/svg">
<path d="M16.0008 9.2998C17.3259 9.2998 18.6213 9.69291 19.7231 10.4291C20.8248 11.1653 21.684 12.2114 22.1911 13.4356C22.6982 14.6599 22.8304 16.0074 22.5719 17.3071C22.3133 18.6067 21.6755 19.8006 20.7386 20.7376C19.8016 21.6745 18.6077 22.3123 17.3081 22.5709C16.0084 22.8294 14.6608 22.6972 13.4366 22.1901C12.2124 21.683 11.1663 20.8239 10.4301 19.7221C9.69389 18.6203 9.30078 17.3249 9.30078 15.9998C9.30078 15.6298 9.60075 15.3298 9.97078 15.3298C10.3408 15.3298 10.6408 15.6298 10.6408 15.9998C10.6408 17.0599 10.9554 18.096 11.5444 18.9775C12.1333 19.8589 12.9702 20.5458 13.9496 20.9515C14.9289 21.3572 16.0067 21.4639 17.0463 21.2571C18.0861 21.0503 19.0415 20.5397 19.7911 19.7901C20.5407 19.0405 21.0512 18.0851 21.2581 17.0453C21.4648 16.0057 21.3582 14.9279 20.9525 13.9486C20.5468 12.9692 19.8599 12.1323 18.9785 11.5434C18.0974 10.9547 17.0617 10.6401 16.0021 10.6398C14.4897 10.6458 13.0381 11.2361 11.9507 12.2873L10.4445 13.7935C10.1828 14.0552 9.75872 14.0552 9.49707 13.7935C9.23542 13.5319 9.23542 13.1077 9.49707 12.8461L11.0111 11.332L11.2748 11.0887C12.5787 9.94436 14.2556 9.30638 15.9982 9.2998H16.0008Z" fill="#171A1F"/>
<path d="M9.32422 9.99471C9.32422 9.62468 9.62419 9.32471 9.99422 9.32471C10.3642 9.32471 10.6642 9.62468 10.6642 9.99471L10.6642 12.6747L13.3442 12.6747C13.7142 12.6747 14.0142 12.9747 14.0142 13.3447C14.0142 13.7147 13.7142 14.0147 13.3442 14.0147L9.99422 14.0147C9.62419 14.0147 9.32422 13.7147 9.32422 13.3447L9.32422 9.99471Z" fill="#171A1F"/>
</svg>
