<svg width="18" height="18" viewBox="0 0 18 18" fill="none" xmlns="http://www.w3.org/2000/svg">
<path d="M5.25 4.5L5.25 1.5C5.25 1.08579 5.58579 0.75 6 0.75C6.41421 0.75 6.75 1.08579 6.75 1.5L6.75 4.5C6.75 4.91421 6.41421 5.25 6 5.25C5.58579 5.25 5.25 4.91421 5.25 4.5Z" fill="white"/>
<path d="M11.25 4.5L11.25 1.5C11.25 1.08579 11.5858 0.75 12 0.75C12.4142 0.75 12.75 1.08579 12.75 1.5V4.5C12.75 4.91421 12.4142 5.25 12 5.25C11.5858 5.25 11.25 4.91421 11.25 4.5Z" fill="white"/>
<path d="M15 4.5C15 4.08579 14.6642 3.75 14.25 3.75L3.75 3.75C3.33579 3.75 3 4.08579 3 4.5L3 15C3 15.4142 3.33579 15.75 3.75 15.75L14.25 15.75C14.6642 15.75 15 15.4142 15 15L15 4.5ZM16.5 15C16.5 16.2427 15.4927 17.25 14.25 17.25L3.75 17.25C2.50736 17.25 1.5 16.2427 1.5 15L1.5 4.5C1.5 3.25736 2.50736 2.25 3.75 2.25L14.25 2.25C15.4927 2.25 16.5 3.25736 16.5 4.5L16.5 15Z" fill="white"/>
<path d="M15.75 6.75C16.1642 6.75 16.5 7.08579 16.5 7.5C16.5 7.91422 16.1642 8.25 15.75 8.25L2.25 8.25C1.83579 8.25 1.5 7.91422 1.5 7.5C1.5 7.08579 1.83579 6.75 2.25 6.75L15.75 6.75Z" fill="white"/>
<path d="M10.7767 9.91825C11.0712 9.67802 11.5055 9.69497 11.7801 9.96955C12.0547 10.2441 12.0717 10.6784 11.8314 10.973L11.7801 11.03L8.78007 14.03C8.50549 14.3047 8.07124 14.3216 7.77672 14.0813L7.71957 14.03L6.21955 12.53L6.16828 12.473C5.92802 12.1784 5.94496 11.7441 6.21955 11.4695C6.49413 11.195 6.92839 11.178 7.22297 11.4182L7.2801 11.4695L8.24982 12.4392L10.7196 9.96955L10.7767 9.91825Z" fill="white"/>
</svg>
