<svg width="16" height="16" viewBox="0 0 16 16" fill="none" xmlns="http://www.w3.org/2000/svg">
<path d="M4.66016 4.01016L4.66016 1.33016C4.66016 0.960129 4.96013 0.660156 5.33016 0.660156C5.70018 0.660156 6.00016 0.960129 6.00016 1.33016L6.00016 4.01016C6.00016 4.38018 5.70018 4.68016 5.33016 4.68016C4.96013 4.68016 4.66016 4.38018 4.66016 4.01016Z" fill="#171A1F"/>
<path d="M10 4.01016L10 1.33016C10 0.960129 10.3 0.660156 10.67 0.660156C11.04 0.660156 11.34 0.960129 11.34 1.33016L11.34 4.01016C11.34 4.38018 11.04 4.68016 10.67 4.68016C10.3 4.68016 10 4.38018 10 4.01016Z" fill="#171A1F"/>
<path d="M13.3608 3.98021C13.3608 3.61019 13.0608 3.31021 12.6908 3.31021L3.31078 3.31021C2.94075 3.31021 2.64078 3.61019 2.64078 3.98021L2.64078 13.3602C2.64078 13.7303 2.94075 14.0302 3.31078 14.0302L12.6908 14.0302C13.0608 14.0302 13.3608 13.7303 13.3608 13.3602L13.3608 3.98021ZM14.7008 13.3602C14.7008 14.4703 13.8009 15.3702 12.6908 15.3702L3.31078 15.3702C2.20069 15.3702 1.30078 14.4703 1.30078 13.3602L1.30078 3.98021C1.30078 2.87013 2.20069 1.97021 3.31078 1.97021L12.6908 1.97021C13.8009 1.97021 14.7008 2.87013 14.7008 3.98021L14.7008 13.3602Z" fill="#171A1F"/>
<path d="M14.0308 6C14.4008 6 14.7008 6.29997 14.7008 6.67C14.7008 7.04004 14.4008 7.34 14.0308 7.34L1.97078 7.34C1.60075 7.34 1.30078 7.04004 1.30078 6.67C1.30078 6.29997 1.60075 6 1.97078 6L14.0308 6Z" fill="#171A1F"/>
</svg>
