<svg width="11" height="11" viewBox="0 0 11 11" fill="none" xmlns="http://www.w3.org/2000/svg">
<g clip-path="url(#clip0_5393_1916)">
<path d="M3.20703 2.7502L3.20703 0.910195C3.20703 0.656147 3.41298 0.450195 3.66703 0.450195C3.92108 0.450195 4.12703 0.656147 4.12703 0.910195L4.12703 2.7502C4.12703 3.00424 3.92108 3.2102 3.66703 3.2102C3.41298 3.2102 3.20703 3.00424 3.20703 2.7502Z" fill="#565D6D"/>
<path d="M6.86719 2.7502L6.86719 0.910195C6.86719 0.656147 7.07313 0.450195 7.32719 0.450195C7.58125 0.450195 7.78719 0.656147 7.78719 0.910195L7.78719 2.7502C7.78719 3.00424 7.58125 3.2102 7.32719 3.2102C7.07313 3.2102 6.86719 3.00424 6.86719 2.7502Z" fill="#565D6D"/>
<path d="M9.17844 2.74035C9.17844 2.4863 8.9725 2.28035 8.71844 2.28035L2.27844 2.28035C2.02439 2.28035 1.81844 2.4863 1.81844 2.74035L1.81844 9.18035C1.81844 9.43441 2.02439 9.64035 2.27844 9.64035L8.71844 9.64035C8.9725 9.64035 9.17844 9.43441 9.17844 9.18035L9.17844 2.74035ZM10.0984 9.18035C10.0984 9.94252 9.48061 10.5604 8.71844 10.5604L2.27844 10.5604C1.51629 10.5604 0.898437 9.94252 0.898437 9.18035L0.898437 2.74035C0.898437 1.9782 1.51629 1.36035 2.27844 1.36035L8.71844 1.36035C9.48061 1.36035 10.0984 1.9782 10.0984 2.74035L10.0984 9.18035Z" fill="#565D6D"/>
<path d="M9.63844 4.12012C9.8925 4.12012 10.0984 4.32607 10.0984 4.58012C10.0984 4.83418 9.8925 5.04012 9.63844 5.04012L1.35844 5.04012C1.10439 5.04012 0.898437 4.83418 0.898437 4.58012C0.898438 4.32607 1.10439 4.12012 1.35844 4.12012L9.63844 4.12012Z" fill="#565D6D"/>
</g>
<defs>
<clipPath id="clip0_5393_1916">
<rect width="11" height="11" fill="white"/>
</clipPath>
</defs>
</svg>
