<svg width="18" height="18" viewBox="0 0 18 18" fill="none" xmlns="http://www.w3.org/2000/svg">
<path d="M1.5 14.25L1.5 2.25C1.5 1.83579 1.83579 1.5 2.25 1.5C2.66421 1.5 3 1.83579 3 2.25L3 14.25C3 14.4489 3.07907 14.6396 3.21973 14.7803C3.36038 14.921 3.55108 15 3.75 15L15.75 15C16.1642 15 16.5 15.3358 16.5 15.75C16.5 16.1642 16.1642 16.5 15.75 16.5L3.75 16.5C3.15326 16.5 2.58114 16.2628 2.15918 15.8408C1.73723 15.4189 1.5 14.8467 1.5 14.25Z" fill="white"/>
<path d="M12.75 12.75L12.75 6.75C12.75 6.33579 13.0858 6 13.5 6C13.9142 6 14.25 6.33579 14.25 6.75L14.25 12.75C14.25 13.1642 13.9142 13.5 13.5 13.5C13.0858 13.5 12.75 13.1642 12.75 12.75Z" fill="white"/>
<path d="M9 12.75L9 3.75C9 3.33579 9.33578 3 9.75 3C10.1642 3 10.5 3.33579 10.5 3.75L10.5 12.75C10.5 13.1642 10.1642 13.5 9.75 13.5C9.33578 13.5 9 13.1642 9 12.75Z" fill="white"/>
<path d="M5.25 12.7549L5.25 10.5049C5.25 10.0907 5.58579 9.75488 6 9.75488C6.41421 9.75488 6.75 10.0907 6.75 10.5049L6.75 12.7549C6.75 13.1691 6.41421 13.5049 6 13.5049C5.58579 13.5049 5.25 13.1691 5.25 12.7549Z" fill="white"/>
</svg>
