<svg width="16" height="16" viewBox="0 0 16 16" fill="none" xmlns="http://www.w3.org/2000/svg">
<path d="M1.30078 12.6898L1.30078 1.9698C1.30078 1.59978 1.60075 1.2998 1.97078 1.2998C2.34081 1.2998 2.64078 1.59978 2.64078 1.9698L2.64078 12.6898C2.64078 12.8675 2.71142 13.0379 2.83707 13.1635C2.96272 13.2892 3.13308 13.3598 3.31078 13.3598L14.0308 13.3598C14.4008 13.3598 14.7008 13.6598 14.7008 14.0298C14.7008 14.3998 14.4008 14.6998 14.0308 14.6998L3.31078 14.6998C2.7777 14.6998 2.2666 14.4879 1.88965 14.1109C1.5127 13.734 1.30078 13.2229 1.30078 12.6898Z" fill="#94A3B8"/>
<path d="M11.332 11.3493L11.332 5.98934C11.332 5.61931 11.632 5.31934 12.002 5.31934C12.3721 5.31934 12.672 5.61931 12.672 5.98934L12.672 11.3493C12.672 11.7194 12.3721 12.0193 12.002 12.0193C11.632 12.0193 11.332 11.7194 11.332 11.3493Z" fill="#94A3B8"/>
<path d="M8 11.3496L8 3.30965C8 2.93962 8.29996 2.63965 8.67 2.63965C9.04004 2.63965 9.34 2.93962 9.34 3.30965L9.34 11.3496C9.34 11.7197 9.04004 12.0196 8.67 12.0196C8.29996 12.0196 8 11.7197 8 11.3496Z" fill="#94A3B8"/>
<path d="M4.66016 11.3353L4.66016 9.32527C4.66016 8.95523 4.96013 8.65527 5.33016 8.65527C5.70018 8.65527 6.00016 8.95523 6.00016 9.32527L6.00016 11.3353C6.00016 11.7053 5.70018 12.0053 5.33016 12.0053C4.96013 12.0053 4.66016 11.7053 4.66016 11.3353Z" fill="#94A3B8"/>
</svg>
