<svg width="16" height="16" viewBox="0 0 16 16" fill="none" xmlns="http://www.w3.org/2000/svg">
<g clip-path="url(#clip0_5437_2325)">
<path d="M14.0289 7.99988C14.0289 4.66961 11.3292 1.96988 7.99891 1.96988C4.66863 1.96988 1.96891 4.66961 1.96891 7.99988C1.96891 11.3302 4.66863 14.0299 7.99891 14.0299C11.3292 14.0299 14.0289 11.3302 14.0289 7.99988ZM15.3689 7.99988C15.3689 12.0702 12.0692 15.3699 7.99891 15.3699C3.92857 15.3699 0.628906 12.0702 0.628906 7.99988C0.628906 3.92955 3.92857 0.629883 7.99891 0.629883C12.0692 0.629883 15.3689 3.92955 15.3689 7.99988Z" fill="#FB923C"/>
<path d="M7.32812 8.00967L7.32812 5.32967C7.32812 4.95964 7.62808 4.65967 7.99813 4.65967C8.36817 4.65967 8.66813 4.95964 8.66813 5.32967V8.00967C8.66813 8.37971 8.36817 8.67967 7.99813 8.67967C7.62808 8.67967 7.32812 8.37971 7.32812 8.00967Z" fill="#FB923C"/>
<path d="M8.00469 10L8.07337 10.0033C8.41118 10.0376 8.67469 10.3231 8.67469 10.67C8.67469 11.0169 8.41118 11.3024 8.07337 11.3367L8.00469 11.34H7.99813C7.62808 11.34 7.32812 11.04 7.32812 10.67C7.32812 10.3 7.62808 10 7.99813 10H8.00469Z" fill="#FB923C"/>
</g>
<defs>
<clipPath id="clip0_5437_2325">
<rect width="16" height="16" fill="white"/>
</clipPath>
</defs>
</svg>
