<svg width="6" height="6" viewBox="0 0 6 6" fill="none" xmlns="http://www.w3.org/2000/svg">
<g clip-path="url(#clip0_5393_1934)">
<path d="M5.25 3C5.25 1.75736 4.24265 0.75 3 0.75C1.75736 0.75 0.75 1.75736 0.75 3C0.75 4.24265 1.75736 5.25 3 5.25C4.24265 5.25 5.25 4.24265 5.25 3ZM5.75 3C5.75 4.51877 4.51877 5.75 3 5.75C1.48122 5.75 0.25 4.51877 0.25 3C0.25 1.48122 1.48122 0.25 3 0.25C4.51877 0.25 5.75 1.48122 5.75 3Z" fill="#565D6D"/>
<path d="M2.75 1.5C2.75 1.36193 2.86193 1.25 3 1.25C3.13807 1.25 3.25 1.36193 3.25 1.5L3.25 2.84545L4.11182 3.27638L4.13403 3.28905C4.24108 3.3569 4.28153 3.49605 4.22363 3.61182C4.16575 3.7276 4.0301 3.77883 3.91162 3.73388L3.88818 3.72362L2.88818 3.22362C2.8035 3.18127 2.75 3.0947 2.75 3L2.75 1.5Z" fill="#565D6D"/>
</g>
<defs>
<clipPath id="clip0_5393_1934">
<rect width="6" height="6" fill="white"/>
</clipPath>
</defs>
</svg>
