<svg width="40" height="40" viewBox="0 0 40 40" fill="none" xmlns="http://www.w3.org/2000/svg">
<rect width="40" height="40" rx="10" fill="#F8FAFC"/>
<path d="M11.0098 19L11.1123 19.0049C11.6165 19.0561 12.0098 19.4822 12.0098 20C12.0098 20.5178 11.6165 20.9439 11.1123 20.9951L11.0098 21H11C10.4477 21 10 20.5523 10 20C10 19.4477 10.4477 19 11 19H11.0098Z" fill="#059669"/>
<path d="M11.0098 25L11.1123 25.0049C11.6165 25.0561 12.0098 25.4822 12.0098 26C12.0098 26.5178 11.6165 26.9439 11.1123 26.9951L11.0098 27H11C10.4477 27 10 26.5523 10 26C10 25.4477 10.4477 25 11 25H11.0098Z" fill="#059669"/>
<path d="M11.0098 13L11.1123 13.0049C11.6165 13.0561 12.0098 13.4822 12.0098 14C12.0098 14.5178 11.6165 14.9439 11.1123 14.9951L11.0098 15H11C10.4477 15 10 14.5523 10 14C10 13.4477 10.4477 13 11 13H11.0098Z" fill="#059669"/>
<path d="M29 19C29.5523 19 30 19.4477 30 20C30 20.5523 29.5523 21 29 21L16 21C15.4477 21 15 20.5523 15 20C15 19.4477 15.4477 19 16 19L29 19Z" fill="#059669"/>
<path d="M29 25C29.5523 25 30 25.4477 30 26C30 26.5523 29.5523 27 29 27L16 27C15.4477 27 15 26.5523 15 26C15 25.4477 15.4477 25 16 25L29 25Z" fill="#059669"/>
<path d="M29 13C29.5523 13 30 13.4477 30 14C30 14.5523 29.5523 15 29 15L16 15C15.4477 15 15 14.5523 15 14C15 13.4477 15.4477 13 16 13L29 13Z" fill="#059669"/>
</svg>
