<svg width="32" height="32" viewBox="0 0 32 32" fill="none" xmlns="http://www.w3.org/2000/svg">
<rect width="32" height="32" rx="16" fill="#F8FAFC"/>
<path d="M17.7294 21.2397V20.0797C17.7294 19.6182 17.5459 19.1758 17.2196 18.8494C16.9341 18.564 16.5598 18.3878 16.1616 18.3482L15.9894 18.3397H12.5094C12.0479 18.3397 11.6055 18.5231 11.2791 18.8494C10.9528 19.1758 10.7694 19.6182 10.7694 20.0797V21.2397C10.7694 21.56 10.5097 21.8197 10.1894 21.8197C9.86905 21.8197 9.60937 21.56 9.60937 21.2397L9.60938 20.0797C9.60938 19.3105 9.91513 18.5731 10.459 18.0293C11.0028 17.4855 11.7402 17.1797 12.5094 17.1797H15.9894L16.1332 17.1831C16.85 17.2187 17.5299 17.5195 18.0398 18.0293C18.5836 18.5731 18.8894 19.3105 18.8894 20.0797V21.2397C18.8894 21.56 18.6297 21.8197 18.3094 21.8197C17.989 21.8197 17.7294 21.56 17.7294 21.2397Z" fill="#2563EB"/>
<path d="M19.4956 13.0796C19.4956 12.6942 19.3678 12.3196 19.1319 12.0148C18.9255 11.748 18.6465 11.5477 18.3299 11.437L18.1923 11.3951L18.1357 11.3776C17.86 11.2754 17.7012 10.979 17.7765 10.6882C17.8519 10.3976 18.1346 10.216 18.4251 10.2606L18.4834 10.2725L18.599 10.3048C19.1734 10.4794 19.6803 10.8287 20.049 11.3051C20.4421 11.8131 20.6556 12.4372 20.6556 13.0796C20.6556 13.722 20.4421 14.3461 20.049 14.8542C19.6558 15.3622 19.1053 15.7255 18.4834 15.8867C18.1734 15.9671 17.857 15.781 17.7765 15.471C17.6961 15.161 17.8823 14.8445 18.1923 14.7641C18.5654 14.6674 18.896 14.4493 19.1319 14.1445C19.3678 13.8396 19.4956 13.465 19.4956 13.0796Z" fill="#2563EB"/>
<path d="M21.2477 21.2448V20.0853L21.2415 19.9415C21.2135 19.6073 21.0897 19.2871 20.8829 19.0205C20.6762 18.7538 20.3971 18.5537 20.0803 18.4434L19.9427 18.4014L19.886 18.3838C19.6103 18.282 19.4513 17.9859 19.5264 17.6951C19.6015 17.4045 19.8838 17.2221 20.1744 17.2664L20.2327 17.2788L20.3482 17.3111C20.923 17.4851 21.4309 17.8335 21.7999 18.3097C22.1936 18.8175 22.4072 19.4417 22.4077 20.0842V21.2448C22.4076 21.5651 22.148 21.8248 21.8277 21.8248C21.5074 21.8248 21.2478 21.5651 21.2477 21.2448Z" fill="#2563EB"/>
<path d="M15.9877 13.0797C15.9877 12.1187 15.2087 11.3397 14.2477 11.3397C13.2867 11.3397 12.5077 12.1187 12.5077 13.0797C12.5077 14.0407 13.2867 14.8197 14.2477 14.8197C15.2087 14.8197 15.9877 14.0407 15.9877 13.0797ZM17.1477 13.0797C17.1477 14.6813 15.8493 15.9797 14.2477 15.9797C12.646 15.9797 11.3477 14.6813 11.3477 13.0797C11.3477 11.4781 12.646 10.1797 14.2477 10.1797C15.8493 10.1797 17.1477 11.4781 17.1477 13.0797Z" fill="#2563EB"/>
</svg>
