<svg width="32" height="32" viewBox="0 0 32 32" fill="none" xmlns="http://www.w3.org/2000/svg">
<rect width="32" height="32" rx="16" fill="#F8FAFC"/>
<path d="M21.2211 13.1004C21.2211 12.78 20.9614 12.5204 20.6411 12.5204L11.3611 12.5204C11.0408 12.5204 10.7811 12.78 10.7811 13.1004L10.7811 18.9004C10.7811 19.2207 11.0408 19.4804 11.3611 19.4804L20.6411 19.4804C20.9614 19.4804 21.2211 19.2207 21.2211 18.9004V13.1004ZM22.3811 18.9004C22.3811 19.8614 21.6021 20.6404 20.6411 20.6404L11.3611 20.6404C10.4001 20.6404 9.62109 19.8614 9.62109 18.9004L9.62109 13.1004C9.62109 12.1394 10.4001 11.3604 11.3611 11.3604L20.6411 11.3604C21.6021 11.3604 22.3811 12.1394 22.3811 13.1004V18.9004Z" fill="#EA580C"/>
<path d="M21.8011 14.25C22.1214 14.25 22.3811 14.5097 22.3811 14.83C22.3811 15.1503 22.1214 15.41 21.8011 15.41L10.2011 15.41C9.88077 15.41 9.62109 15.1503 9.62109 14.83C9.62109 14.5097 9.88077 14.25 10.2011 14.25L21.8011 14.25Z" fill="#EA580C"/>
</svg>
