<svg width="20" height="20" viewBox="0 0 20 20" fill="none" xmlns="http://www.w3.org/2000/svg">
<rect width="20" height="20" rx="10" fill="#FFEDD5"/>
<g clip-path="url(#clip0_5409_4642)">
<path d="M10.1069 4.50732C10.177 4.51713 10.2453 4.53682 10.31 4.56543L10.4043 4.61523L10.4907 4.67724C10.5451 4.72261 10.5929 4.77545 10.6328 4.83398L10.6865 4.92578L11.8418 7.26563L11.8755 7.32422C11.9126 7.38088 11.9596 7.43063 12.0146 7.47071C12.0881 7.52414 12.1738 7.55907 12.2636 7.57226L14.8462 7.95019C14.9521 7.96556 15.0526 8.00307 15.1425 8.05957L15.229 8.12207L15.3051 8.19629C15.3525 8.24909 15.3922 8.30829 15.4233 8.37207L15.4634 8.47071L15.4892 8.57422C15.5077 8.67881 15.5041 8.78675 15.4785 8.89063C15.4443 9.02909 15.3721 9.15529 15.27 9.25489L15.2695 9.25539L13.4018 11.0742C13.3368 11.1376 13.2879 11.2158 13.2597 11.3022C13.2316 11.3886 13.225 11.4807 13.2402 11.5703L13.6806 14.1382L13.6919 14.2446C13.6955 14.3512 13.6769 14.4579 13.6367 14.5576C13.583 14.6905 13.4929 14.8059 13.3769 14.8901C13.2609 14.9744 13.1235 15.0242 12.9804 15.0342C12.8374 15.0441 12.6944 15.0137 12.5678 14.9463L10.2612 13.7334C10.2009 13.7018 10.1355 13.6815 10.0683 13.6733L10.0005 13.6694C9.90973 13.6694 9.82008 13.6908 9.73973 13.7329L9.74023 13.7334L7.4321 14.9463L7.43259 14.9468C7.30609 15.0137 7.16325 15.0438 7.02048 15.0337C6.87778 15.0235 6.74069 14.9738 6.62497 14.8896C6.50923 14.8055 6.41937 14.6903 6.3657 14.5576C6.32543 14.458 6.30688 14.3512 6.31052 14.2446L6.32126 14.1387L6.76169 11.5708L6.76902 11.5034C6.77233 11.4356 6.76325 11.3676 6.74216 11.3027C6.72107 11.2379 6.68847 11.1774 6.64597 11.1245L6.60007 11.0742L4.73191 9.25584L4.7324 9.25539C4.63011 9.15609 4.55746 9.03044 4.52292 8.89209C4.48824 8.75308 4.49287 8.60698 4.53708 8.47071L4.57712 8.37158C4.62388 8.27564 4.6906 8.19025 4.77292 8.12109L4.85935 8.0581C4.91962 8.02043 4.98489 7.99135 5.0532 7.97168L5.15769 7.94922L7.73826 7.57226L7.80466 7.5581C7.87015 7.54031 7.93207 7.51081 7.98728 7.47071C8.06076 7.41731 8.12037 7.34705 8.16062 7.26563L9.31493 4.92627L9.31543 4.92578L9.36913 4.83398C9.42893 4.74633 9.50638 4.67164 9.59713 4.61523L9.69138 4.56543C9.78853 4.52246 9.89398 4.5 10.0009 4.5L10.1069 4.50732ZM12.6958 14.312V14.3096L12.6948 14.3057L12.6958 14.312ZM13.0356 14.0625L13.0381 14.0635L13.0346 14.0615L13.0356 14.0625ZM6.96482 14.063L6.96628 14.0625L6.96775 14.0615C6.9668 14.062 6.96576 14.0625 6.96482 14.063ZM9.05713 7.70801C8.94511 7.93467 8.7797 8.13118 8.57517 8.27979C8.37053 8.42843 8.13258 8.52462 7.8823 8.56104L7.88279 8.56152L5.76951 8.87012L7.29783 10.3579L7.36374 10.4258C7.51228 10.5891 7.62482 10.7825 7.69333 10.9932C7.76184 11.2038 7.78427 11.4265 7.76023 11.646L7.74704 11.7397L7.38669 13.8413L9.27488 12.8486L9.35983 12.8066C9.56088 12.7161 9.77928 12.6694 10.0005 12.6694L10.0952 12.6723C10.3153 12.6857 10.5307 12.7453 10.7265 12.8481L12.6152 13.8413L12.2544 11.7397V11.7392C12.2118 11.4898 12.2308 11.2338 12.3091 10.9932C12.3873 10.7525 12.5229 10.5345 12.7041 10.3579L14.2309 8.8706L12.1186 8.56152C11.8688 8.52483 11.631 8.42829 11.4267 8.27979C11.2224 8.1312 11.0572 7.93496 10.9453 7.70849L10.0005 5.7959L9.05713 7.70801Z" fill="#C2410C"/>
</g>
<defs>
<clipPath id="clip0_5409_4642">
<rect width="12" height="12" fill="white" transform="translate(4 4)"/>
</clipPath>
</defs>
</svg>
