<svg width="32" height="32" viewBox="0 0 32 32" fill="none" xmlns="http://www.w3.org/2000/svg">
<rect width="32" height="32" rx="16" fill="#F8FAFC"/>
<path d="M13.0898 12.4898V10.1698C13.0898 9.84952 13.3495 9.58984 13.6698 9.58984C13.9902 9.58984 14.2498 9.84952 14.2498 10.1698V12.4898C14.2498 12.8102 13.9902 13.0698 13.6698 13.0698C13.3495 13.0698 13.0898 12.8102 13.0898 12.4898Z" fill="#4F46E5"/>
<path d="M17.75 12.4898V10.1698C17.75 9.84952 18.0097 9.58984 18.33 9.58984C18.6503 9.58984 18.91 9.84952 18.91 10.1698V12.4898C18.91 12.8102 18.6503 13.0698 18.33 13.0698C18.0097 13.0698 17.75 12.8102 17.75 12.4898Z" fill="#4F46E5"/>
<path d="M20.6392 12.5203C20.6392 12.2 20.3796 11.9403 20.0592 11.9403L11.9392 11.9403C11.6189 11.9403 11.3592 12.2 11.3592 12.5203L11.3592 20.6403C11.3592 20.9606 11.6189 21.2203 11.9392 21.2203H20.0592C20.3796 21.2203 20.6392 20.9606 20.6392 20.6403V12.5203ZM21.7992 20.6403C21.7992 21.6013 21.0202 22.3803 20.0592 22.3803H11.9392C10.9782 22.3803 10.1992 21.6013 10.1992 20.6403L10.1992 12.5203C10.1992 11.5593 10.9782 10.7803 11.9392 10.7803L20.0592 10.7803C21.0202 10.7803 21.7992 11.5593 21.7992 12.5203V20.6403Z" fill="#4F46E5"/>
<path d="M21.2192 14.25C21.5396 14.25 21.7992 14.5097 21.7992 14.83C21.7992 15.1503 21.5396 15.41 21.2192 15.41L10.7792 15.41C10.4589 15.41 10.1992 15.1503 10.1992 14.83C10.1992 14.5097 10.4589 14.25 10.7792 14.25L21.2192 14.25Z" fill="#4F46E5"/>
<path d="M17.3737 16.72C17.6014 16.5342 17.9373 16.5473 18.1496 16.7596C18.362 16.972 18.3751 17.3078 18.1893 17.5356L18.1496 17.5797L15.8296 19.8997C15.6173 20.1121 15.2814 20.1253 15.0537 19.9394L15.0095 19.8997L13.8495 18.7397L13.8098 18.6956C13.624 18.4678 13.6371 18.132 13.8495 17.9196C14.0618 17.7073 14.3976 17.6942 14.6255 17.88L14.6696 17.9196L15.4195 18.6695L17.3295 16.7596L17.3737 16.72Z" fill="#4F46E5"/>
</svg>
