<svg width="32" height="32" viewBox="0 0 32 32" fill="none" xmlns="http://www.w3.org/2000/svg">
<rect width="32" height="32" rx="16" fill="#F8FAFC"/>
<path d="M10.7575 15.4199L10.817 15.4228C11.1095 15.4525 11.3375 15.6996 11.3375 15.9999C11.3375 16.3002 11.1095 16.5474 10.817 16.5771L10.7575 16.5799H10.7519C10.4316 16.5799 10.1719 16.3203 10.1719 15.9999C10.1719 15.6796 10.4316 15.4199 10.7519 15.4199H10.7575Z" fill="#059669"/>
<path d="M10.7575 18.9199L10.817 18.9228C11.1095 18.9525 11.3375 19.1996 11.3375 19.4999C11.3375 19.8002 11.1095 20.0474 10.817 20.0771L10.7575 20.0799H10.7519C10.4316 20.0799 10.1719 19.8203 10.1719 19.4999C10.1719 19.1796 10.4316 18.9199 10.7519 18.9199H10.7575Z" fill="#059669"/>
<path d="M10.7575 11.9199L10.817 11.9228C11.1095 11.9525 11.3375 12.1996 11.3375 12.4999C11.3375 12.8002 11.1095 13.0474 10.817 13.0771L10.7575 13.0799H10.7519C10.4316 13.0799 10.1719 12.8202 10.1719 12.4999C10.1719 12.1796 10.4316 11.9199 10.7519 11.9199H10.7575Z" fill="#059669"/>
<path d="M21.2333 15.4199C21.5536 15.4199 21.8133 15.6796 21.8133 15.9999C21.8133 16.3203 21.5536 16.5799 21.2333 16.5799L13.6933 16.5799C13.373 16.5799 13.1133 16.3203 13.1133 15.9999C13.1133 15.6796 13.373 15.4199 13.6933 15.4199L21.2333 15.4199Z" fill="#059669"/>
<path d="M21.2333 18.9199C21.5536 18.9199 21.8133 19.1796 21.8133 19.4999C21.8133 19.8203 21.5536 20.0799 21.2333 20.0799L13.6933 20.0799C13.373 20.0799 13.1133 19.8203 13.1133 19.4999C13.1133 19.1796 13.373 18.9199 13.6933 18.9199L21.2333 18.9199Z" fill="#059669"/>
<path d="M21.2333 11.9199C21.5536 11.9199 21.8133 12.1796 21.8133 12.4999C21.8133 12.8202 21.5536 13.0799 21.2333 13.0799L13.6933 13.0799C13.373 13.0799 13.1133 12.8202 13.1133 12.4999C13.1133 12.1796 13.373 11.9199 13.6933 11.9199L21.2333 11.9199Z" fill="#059669"/>
</svg>
