<svg width="40" height="40" viewBox="0 0 40 40" fill="none" xmlns="http://www.w3.org/2000/svg">
<rect width="40" height="40" rx="10" fill="#F8FAFC"/>
<path d="M23 29V27C23 26.2044 22.6837 25.4415 22.1211 24.8789C21.6289 24.3867 20.9835 24.0829 20.2969 24.0146L20 24L14 24C13.2043 24 12.4415 24.3163 11.8789 24.8789C11.3163 25.4415 11 26.2044 11 27V29C11 29.5523 10.5523 30 10 30C9.44772 30 9 29.5523 9 29V27C9 25.6739 9.52716 24.4025 10.4648 23.4648C11.4025 22.5272 12.6739 22 14 22L20 22L20.248 22.0059C21.4838 22.0672 22.6561 22.5858 23.5352 23.4648C24.4728 24.4025 25 25.6739 25 27V29C25 29.5523 24.5523 30 24 30C23.4477 30 23 29.5523 23 29Z" fill="#2563EB"/>
<path d="M25.9962 14.9998C25.9962 14.3353 25.7758 13.6895 25.3692 13.1639C25.0133 12.7039 24.5322 12.3586 23.9864 12.1678L23.7491 12.0955L23.6515 12.0653C23.1762 11.8892 22.9024 11.378 23.0323 10.8768C23.1623 10.3757 23.6496 10.0626 24.1505 10.1395L24.2511 10.16L24.4503 10.2157C25.4407 10.5166 26.3147 11.1189 26.9503 11.9403C27.6281 12.8162 27.9962 13.8922 27.9962 14.9998C27.9962 16.1074 27.6281 17.1834 26.9503 18.0595C26.2724 18.9354 25.3233 19.5618 24.2511 19.8397C23.7165 19.9783 23.171 19.6574 23.0323 19.1229C22.8937 18.5884 23.2146 18.0428 23.7491 17.9041C24.3924 17.7374 24.9625 17.3614 25.3692 16.8358C25.7759 16.3102 25.9962 15.6643 25.9962 14.9998Z" fill="#2563EB"/>
<path d="M28.9998 29.0006V27.0016L28.9891 26.7536C28.9409 26.1774 28.7273 25.6254 28.3709 25.1657C28.0145 24.7059 27.5332 24.3609 26.9871 24.1706L26.7498 24.0983L26.6521 24.068C26.1767 23.8924 25.9026 23.3818 26.032 22.8805C26.1615 22.3794 26.6483 22.065 27.1492 22.1413L27.2498 22.1627L27.449 22.2184C28.4399 22.5185 29.3156 23.1191 29.9519 23.9401C30.6306 24.8156 30.9989 25.8919 30.9998 26.9997V29.0006C30.9997 29.5529 30.552 30.0006 29.9998 30.0006C29.4476 30.0006 28.9999 29.5529 28.9998 29.0006Z" fill="#2563EB"/>
<path d="M20 15C20 13.3432 18.6569 12 17 12C15.3432 12 14 13.3432 14 15C14 16.6568 15.3432 18 17 18C18.6569 18 20 16.6568 20 15ZM22 15C22 17.7614 19.7614 20 17 20C14.2386 20 12 17.7614 12 15C12 12.2386 14.2386 10 17 10C19.7614 10 22 12.2386 22 15Z" fill="#2563EB"/>
</svg>
