<svg width="32" height="32" viewBox="0 0 32 32" fill="none" xmlns="http://www.w3.org/2000/svg">
<rect width="32" height="32" rx="16" fill="#F8FAFC"/>
<path d="M20.0612 12.5201C18.7159 12.5201 17.1442 11.7449 16.0653 10.8033C16.0474 10.7881 16.0247 10.7801 16.0012 10.7801C15.9778 10.7801 15.9551 10.7887 15.9372 10.8039L15.9367 10.8033C14.8976 11.7093 13.385 12.4711 12.0681 12.5179L11.9412 12.5201L11.9412 16.5801L11.9463 16.8192C11.998 17.9939 12.4322 18.8647 13.0933 19.5418C13.7242 20.188 14.582 20.6775 15.5685 21.0598L15.999 21.2173L16.012 21.2212C17.1749 20.8154 18.1895 20.2814 18.9092 19.543C19.6141 18.8198 20.0612 17.8769 20.0612 16.5801V12.5201ZM21.2212 16.5801C21.2212 18.1833 20.6534 19.4159 19.7401 20.353C18.8426 21.2738 17.6371 21.884 16.3892 22.3189L16.3847 22.3206C16.1364 22.4048 15.8672 22.4018 15.6207 22.3133C15.6172 22.3121 15.6139 22.3111 15.6104 22.3099C15.6095 22.3095 15.6085 22.3097 15.6076 22.3093V22.3087C14.361 21.8769 13.159 21.2695 12.2635 20.3524C11.4064 19.4745 10.8538 18.3365 10.788 16.8769L10.7812 16.5801L10.7812 12.5201C10.7813 12.2126 10.9036 11.9174 11.1211 11.7C11.3386 11.4825 11.6337 11.3601 11.9412 11.3601L12.1276 11.3533C13.0772 11.2834 14.2923 10.7004 15.1788 9.92598L15.1839 9.92201L15.2717 9.85291C15.484 9.70192 15.7389 9.62012 16.0012 9.62012C16.2636 9.62012 16.5185 9.70192 16.7308 9.85291L16.8186 9.92201L16.8237 9.92598L17.006 10.0795C17.9375 10.8307 19.1493 11.3601 20.0612 11.3601C20.3688 11.3601 20.6639 11.4825 20.8814 11.7C21.0989 11.9174 21.2212 12.2126 21.2212 12.5201V16.5801Z" fill="#D97706"/>
<path d="M17.3737 14.3909C17.6014 14.2051 17.9373 14.2182 18.1496 14.4305C18.362 14.6429 18.3751 14.9787 18.1893 15.2065L18.1496 15.2507L15.8296 17.5707C15.6173 17.7831 15.2814 17.7962 15.0537 17.6103L15.0095 17.5707L13.8495 16.4107L13.8098 16.3665C13.624 16.1387 13.6371 15.8029 13.8495 15.5905C14.0618 15.3782 14.3976 15.3651 14.6255 15.5509L14.6696 15.5905L15.4195 16.3404L17.3295 14.4305L17.3737 14.3909Z" fill="#D97706"/>
</svg>
