<svg width="40" height="40" viewBox="0 0 40 40" fill="none" xmlns="http://www.w3.org/2000/svg">
<rect width="40" height="40" rx="10" fill="#F8FAFC"/>
<path d="M15 14L15 10C15 9.44772 15.4477 9 16 9C16.5523 9 17 9.44772 17 10V14C17 14.5523 16.5523 15 16 15C15.4477 15 15 14.5523 15 14Z" fill="#4F46E5"/>
<path d="M23 14V10C23 9.44772 23.4477 9 24 9C24.5523 9 25 9.44772 25 10V14C25 14.5523 24.5523 15 24 15C23.4477 15 23 14.5523 23 14Z" fill="#4F46E5"/>
<path d="M28 14C28 13.4477 27.5523 13 27 13L13 13C12.4477 13 12 13.4477 12 14L12 28C12 28.5523 12.4477 29 13 29L27 29C27.5523 29 28 28.5523 28 28L28 14ZM30 28C30 29.6569 28.6569 31 27 31L13 31C11.3432 31 10 29.6569 10 28L10 14C10 12.3432 11.3432 11 13 11L27 11C28.6569 11 30 12.3432 30 14L30 28Z" fill="#4F46E5"/>
<path d="M29 17C29.5523 17 30 17.4477 30 18C30 18.5523 29.5523 19 29 19L11 19C10.4477 19 10 18.5523 10 18C10 17.4477 10.4477 17 11 17L29 17Z" fill="#4F46E5"/>
<path d="M22.369 21.2243C22.7617 20.904 23.3407 20.9266 23.7068 21.2927C24.073 21.6588 24.0956 22.2378 23.7752 22.6306L23.7068 22.7067L19.7068 26.7067C19.3407 27.0729 18.7617 27.0955 18.369 26.7751L18.2928 26.7067L16.2927 24.7067L16.2244 24.6306C15.904 24.2378 15.9266 23.6588 16.2927 23.2927C16.6588 22.9266 17.2379 22.904 17.6306 23.2243L17.7068 23.2927L18.9998 24.5856L22.2928 21.2927L22.369 21.2243Z" fill="#4F46E5"/>
</svg>
