<svg width="40" height="40" viewBox="0 0 40 40" fill="none" xmlns="http://www.w3.org/2000/svg">
<rect width="40" height="40" rx="10" fill="#F8FAFC"/>
<path d="M29 15C29 14.4477 28.5523 14 28 14L12 14C11.4477 14 11 14.4477 11 15L11 25C11 25.5523 11.4477 26 12 26L28 26C28.5523 26 29 25.5523 29 25L29 15ZM31 25C31 26.6569 29.6569 28 28 28L12 28C10.3432 28 9 26.6569 9 25L9 15C9 13.3432 10.3432 12 12 12L28 12C29.6569 12 31 13.3432 31 15L31 25Z" fill="#EA580C"/>
<path d="M30 17C30.5523 17 31 17.4477 31 18C31 18.5523 30.5523 19 30 19L10 19C9.44772 19 9 18.5523 9 18C9 17.4477 9.44772 17 10 17L30 17Z" fill="#EA580C"/>
</svg>
