<svg width="40" height="40" viewBox="0 0 40 40" fill="none" xmlns="http://www.w3.org/2000/svg">
<rect width="40" height="40" rx="10" fill="#F8FAFC"/>
<path d="M29.2929 14.2929C29.6834 13.9024 30.3164 13.9024 30.7069 14.2929C31.0974 14.6834 31.0974 15.3164 30.7069 15.707L22.2069 24.2069C21.8164 24.5974 21.1834 24.5974 20.7929 24.2069L16.4999 19.9139L10.707 25.7069C10.3164 26.0974 9.68342 26.0974 9.29289 25.7069C8.90237 25.3164 8.90237 24.6834 9.29289 24.2929L15.7929 17.7929L15.8691 17.7245C16.2618 17.4042 16.8408 17.4268 17.207 17.7929L21.4999 22.0858L29.2929 14.2929Z" fill="#0E4327"/>
<path d="M29 21V16H24C23.4477 16 23 15.5523 23 15C23 14.4477 23.4477 14 24 14L30 14L30.1025 14.0049C30.6067 14.0562 31 14.4823 31 15V21C31 21.5523 30.5523 22 30 22C29.4477 22 29 21.5523 29 21Z" fill="#0E4327"/>
</svg>
