<svg width="18" height="18" viewBox="0 0 18 18" fill="none" xmlns="http://www.w3.org/2000/svg">
<path d="M15.75 5.25C15.75 4.83579 15.4142 4.5 15 4.5L3 4.5C2.58579 4.5 2.25 4.83579 2.25 5.25L2.25 12.75C2.25 13.1642 2.58579 13.5 3 13.5L15 13.5C15.4142 13.5 15.75 13.1642 15.75 12.75L15.75 5.25ZM17.25 12.75C17.25 13.9927 16.2427 15 15 15L3 15C1.75736 15 0.75 13.9927 0.75 12.75L0.75 5.25C0.75 4.00736 1.75736 3 3 3L15 3C16.2427 3 17.25 4.00736 17.25 5.25L17.25 12.75Z" fill="white"/>
<path d="M16.5 6.75C16.9142 6.75 17.25 7.08579 17.25 7.5C17.25 7.91422 16.9142 8.25 16.5 8.25L1.5 8.25C1.08579 8.25 0.75 7.91422 0.75 7.5C0.75 7.08579 1.08579 6.75 1.5 6.75L16.5 6.75Z" fill="white"/>
</svg>
