<svg width="16" height="16" viewBox="0 0 16 16" fill="none" xmlns="http://www.w3.org/2000/svg">
<path d="M13.3588 3.31993C13.3565 3.31242 13.3506 3.29792 13.3372 3.27609C13.3088 3.22978 13.2508 3.16012 13.1422 3.07456C12.9211 2.90022 12.5594 2.71344 12.0529 2.54458C11.0467 2.20919 9.61394 1.99039 8.00078 1.99039C6.38762 1.99039 4.9549 2.20919 3.94872 2.54458C3.44214 2.71344 3.08053 2.90022 2.85932 3.07456C2.75079 3.16012 2.69276 3.22978 2.66434 3.27609C2.65095 3.29792 2.64505 3.31242 2.64274 3.31993C2.64063 3.32686 2.64078 3.33039 2.64078 3.33039C2.64078 3.33039 2.64063 3.33392 2.64274 3.34086C2.64505 3.34836 2.65095 3.36287 2.66434 3.38469C2.69276 3.431 2.75079 3.50066 2.85932 3.58622C3.08053 3.76056 3.44214 3.94734 3.94872 4.1162C4.9549 4.4516 6.38762 4.67039 8.00078 4.67039C9.61394 4.67039 11.0467 4.4516 12.0529 4.1162C12.5594 3.94734 12.9211 3.76056 13.1422 3.58622C13.2508 3.50066 13.3088 3.431 13.3372 3.38469C13.3506 3.36287 13.3565 3.34836 13.3588 3.34086C13.3609 3.33392 13.3608 3.33039 13.3608 3.33039C13.3608 3.33039 13.3609 3.32686 13.3588 3.31993ZM14.7008 3.33039C14.7008 3.90111 14.3533 4.33834 13.9719 4.63898C13.5829 4.94555 13.0614 5.19264 12.4768 5.3875C11.3006 5.77958 9.71792 6.01039 8.00078 6.01039C6.28367 6.01039 4.70099 5.77958 3.52474 5.3875C2.9402 5.19264 2.41867 4.94555 2.02967 4.63898C1.64824 4.33834 1.30078 3.90111 1.30078 3.33039C1.30078 2.75967 1.64824 2.32244 2.02967 2.0218C2.41867 1.71523 2.9402 1.46815 3.52474 1.27328C4.70099 0.881199 6.28367 0.650391 8.00078 0.650391C9.71792 0.650391 11.3006 0.881199 12.4768 1.27328C13.0614 1.46815 13.5829 1.71523 13.9719 2.0218C14.3533 2.32244 14.7008 2.75967 14.7008 3.33039Z" fill="#2F9E5B"/>
<path d="M1.30078 12.6857L1.30078 3.30574C1.30078 2.93571 1.60075 2.63574 1.97078 2.63574C2.34081 2.63574 2.64078 2.93571 2.64078 3.30574L2.64078 12.6871C2.64078 12.6871 2.64122 12.69 2.64209 12.6929C2.64409 12.6997 2.64971 12.7137 2.66238 12.7348C2.68902 12.7793 2.74454 12.8481 2.85016 12.933C3.0653 13.1061 3.42488 13.2969 3.94872 13.4716C4.99241 13.8194 6.45055 14.0257 8.00078 14.0257C9.55103 14.0257 11.0091 13.8194 12.0529 13.4716C12.5767 13.2969 12.9363 13.1061 13.1514 12.933C13.257 12.8481 13.3125 12.7793 13.3392 12.7348C13.3519 12.7137 13.3575 12.6997 13.3594 12.6929C13.3604 12.69 13.3608 12.6871 13.3608 12.6871L13.3608 3.30574C13.3608 2.93571 13.6607 2.63574 14.0308 2.63574C14.4008 2.63574 14.7008 2.93571 14.7008 3.30574L14.7008 12.6857L14.6968 12.7878C14.6593 13.2922 14.347 13.6907 13.9915 13.9767C13.6063 14.2866 13.0835 14.5406 12.4768 14.7428C11.2589 15.1489 9.64905 15.3657 8.00078 15.3657C6.35249 15.3657 4.74274 15.1489 3.52474 14.7428C2.91807 14.5406 2.39523 14.2866 2.01004 13.9767C1.65463 13.6907 1.34227 13.2922 1.30471 12.7878L1.30078 12.6857Z" fill="#2F9E5B"/>
<path d="M1.30078 7.9952C1.30078 7.62515 1.60075 7.3252 1.97078 7.3252C2.31763 7.3252 2.60312 7.58871 2.63751 7.92652L2.64078 7.9952V7.99654C2.64078 7.99654 2.64122 7.99942 2.64209 8.00236C2.64409 8.00913 2.64971 8.02313 2.66238 8.04424C2.68902 8.08873 2.74454 8.15754 2.85016 8.24249C3.0653 8.41555 3.42488 8.60637 3.94872 8.78104C4.99241 9.1289 6.45055 9.3352 8.00078 9.3352C9.55103 9.3352 11.0091 9.1289 12.0529 8.78104C12.5767 8.60637 12.9363 8.41555 13.1514 8.24249C13.257 8.15754 13.3125 8.08873 13.3392 8.04424C13.3519 8.02313 13.3575 8.00913 13.3594 8.00236C13.3604 7.99942 13.3608 7.99654 13.3608 7.99654V7.9952C13.3608 7.62515 13.6607 7.3252 14.0308 7.3252C14.4008 7.3252 14.7008 7.62515 14.7008 7.9952C14.7008 8.54808 14.3706 8.9811 13.9915 9.28615C13.6063 9.59609 13.0835 9.85009 12.4768 10.0523C11.2589 10.4583 9.64905 10.6752 8.00078 10.6752C6.35249 10.6752 4.74274 10.4583 3.52474 10.0523C2.91807 9.85009 2.39523 9.59609 2.01004 9.28615C1.63098 8.9811 1.30078 8.54808 1.30078 7.9952Z" fill="#2F9E5B"/>
</svg>
