<svg width="16" height="16" viewBox="0 0 16 16" fill="none" xmlns="http://www.w3.org/2000/svg">
<path d="M1.30078 12.6698L1.30078 9.98982C1.30078 9.61978 1.60075 9.31982 1.97078 9.31982C2.34081 9.31982 2.64078 9.61978 2.64078 9.98982L2.64078 12.6698L2.64405 12.7359C2.65925 12.8893 2.7271 13.0336 2.83707 13.1435C2.96272 13.2692 3.13308 13.3398 3.31078 13.3398L12.6908 13.3398C12.8685 13.3398 13.0388 13.2692 13.1645 13.1435C13.2902 13.0179 13.3608 12.8475 13.3608 12.6698L13.3608 9.98982C13.3608 9.61978 13.6607 9.31982 14.0308 9.31982C14.4008 9.31982 14.7008 9.61978 14.7008 9.98982L14.7008 12.6698C14.7008 13.2029 14.4889 13.714 14.1119 14.091C13.735 14.4679 13.2239 14.6798 12.6908 14.6798L3.31078 14.6798C2.7777 14.6798 2.2666 14.4679 1.88965 14.091C1.55988 13.7612 1.35633 13.3288 1.3106 12.8687L1.30078 12.6698Z" fill="#171A1F"/>
<path d="M10.9276 6.13568C11.1908 5.92105 11.5787 5.93618 11.824 6.18148C12.0693 6.42678 12.0844 6.81472 11.8698 7.07789L11.824 7.12888L8.474 10.4789C8.21237 10.7406 7.78826 10.7406 7.52662 10.4789L4.1766 7.12888L4.1308 7.07789C3.91617 6.81472 3.9313 6.42678 4.1766 6.18148C4.4219 5.93618 4.80983 5.92105 5.07299 6.13568L5.12402 6.18148L8.00031 9.05774L10.8766 6.18148L10.9276 6.13568Z" fill="#171A1F"/>
<path d="M7.33203 10.0201L7.33203 1.98006C7.33203 1.61003 7.63199 1.31006 8.00203 1.31006C8.37207 1.31006 8.67203 1.61003 8.67203 1.98006L8.67203 10.0201C8.67203 10.3901 8.37207 10.6901 8.00203 10.6901C7.63199 10.6901 7.33203 10.3901 7.33203 10.0201Z" fill="#171A1F"/>
</svg>
