<svg width="12" height="12" viewBox="0 0 12 12" fill="none" xmlns="http://www.w3.org/2000/svg">
<path d="M10 4.5V2L7.5 2C7.22385 2 7 1.77614 7 1.5C7 1.22386 7.22385 1 7.5 1L10.5 1L10.5513 1.00244C10.8034 1.0281 11 1.24116 11 1.5V4.5C11 4.77614 10.7761 5 10.5 5C10.2239 5 10 4.77614 10 4.5Z" fill="#5A5F68"/>
<path d="M10.1465 1.14645C10.3417 0.951184 10.6582 0.951184 10.8535 1.14645C11.0488 1.34171 11.0488 1.65821 10.8535 1.85348L5.35346 7.35349C5.15821 7.54874 4.84171 7.54874 4.64645 7.35349C4.45119 7.15824 4.45119 6.84169 4.64645 6.64644L10.1465 1.14645Z" fill="#5A5F68"/>
<path d="M1 9.5L1 4C1 3.60217 1.15815 3.22076 1.43946 2.93946C1.72076 2.65815 2.10217 2.5 2.5 2.5L5.5 2.5C5.77615 2.5 6 2.72386 6 3C6 3.27614 5.77615 3.5 5.5 3.5L2.5 3.5C2.36739 3.5 2.24026 3.55272 2.14649 3.64649C2.05272 3.74026 2 3.86739 2 4L2 9.5C2 9.6326 2.05272 9.75975 2.14649 9.8535C2.24026 9.9473 2.36739 10 2.5 10L8 10C8.1326 10 8.25975 9.9473 8.3535 9.8535C8.4473 9.75975 8.5 9.6326 8.5 9.5L8.5 6.5C8.5 6.22385 8.72385 6 9 6C9.27615 6 9.5 6.22385 9.5 6.5V9.5C9.5 9.89785 9.34185 10.2792 9.06055 10.5605C8.77925 10.8418 8.39785 11 8 11L2.5 11C2.10217 11 1.72076 10.8418 1.43946 10.5605C1.15815 10.2792 1 9.8978 1 9.5Z" fill="#5A5F68"/>
</svg>
