<svg width="16" height="16" viewBox="0 0 16 16" fill="none" xmlns="http://www.w3.org/2000/svg">
<path d="M7.99954 2.64063C9.5585 2.64069 11.0825 3.1037 12.3781 3.97081C13.5926 4.78375 14.5554 5.91755 15.1608 7.24359L15.2773 7.51185L15.2858 7.5341C15.3835 7.79734 15.3957 8.08363 15.3224 8.35264L15.2858 8.46647C15.283 8.47391 15.2803 8.48141 15.2773 8.48871C14.6829 9.93002 13.6737 11.1626 12.3781 12.0298C11.1635 12.8427 9.74804 13.3 8.29133 13.3541L7.99954 13.3599C6.44043 13.3599 4.91599 12.897 3.62032 12.0298C2.40559 11.2168 1.44296 10.0826 0.837592 8.75631L0.721126 8.48871C0.718104 8.48141 0.715377 8.47391 0.712617 8.46647C0.600984 8.16571 0.601022 7.83493 0.712617 7.5341L0.721126 7.51185C1.31554 6.0706 2.32471 4.83798 3.62032 3.97081C4.91599 3.10364 6.44043 2.64063 7.99954 2.64063ZM7.99954 3.98063C6.70584 3.98063 5.44069 4.36485 4.36556 5.08442C3.29728 5.79946 2.46394 6.81371 1.96952 7.99995C2.46393 9.18638 3.29712 10.201 4.36556 10.9162C5.44069 11.6358 6.70584 12.0199 7.99954 12.0199L8.24161 12.0154C9.45036 11.9705 10.6249 11.5907 11.6328 10.9162C12.7012 10.2011 13.5338 9.18632 14.0282 7.99995C13.5338 6.81385 12.7011 5.79941 11.6328 5.08442C10.5578 4.36491 9.29311 3.98069 7.99954 3.98063Z" fill="#5A5F68"/>
<path d="M9.34031 8.00031C9.34031 7.26023 8.74039 6.66031 8.00031 6.66031C7.26023 6.66031 6.66031 7.26023 6.66031 8.00031C6.66031 8.74039 7.26023 9.34031 8.00031 9.34031C8.74039 9.34031 9.34031 8.74039 9.34031 8.00031ZM10.6803 8.00031C10.6803 9.48041 9.48041 10.6803 8.00031 10.6803C6.52019 10.6803 5.32031 9.48041 5.32031 8.00031C5.32031 6.52019 6.52019 5.32031 8.00031 5.32031C9.48041 5.32031 10.6803 6.52019 10.6803 8.00031Z" fill="#5A5F68"/>
</svg>
