<svg width="12" height="12" viewBox="0 0 12 12" fill="none" xmlns="http://www.w3.org/2000/svg">
<path d="M1.5 10L1.5 2C1.5 1.60217 1.65815 1.22076 1.93946 0.939455C2.22076 0.65815 2.60217 0.5 3 0.5L7.5 0.5L7.5493 0.50244C7.6638 0.513785 7.77145 0.564415 7.8535 0.646485L10.3535 3.14649C10.4473 3.24026 10.5 3.36739 10.5 3.5L10.5 10C10.5 10.3979 10.3418 10.7793 10.0605 11.0605C9.77925 11.3418 9.39785 11.5 9 11.5L3 11.5C2.60217 11.5 2.22076 11.3418 1.93946 11.0605C1.65815 10.7793 1.5 10.3978 1.5 10ZM2.5 10C2.5 10.1326 2.55272 10.2598 2.64649 10.3535C2.74026 10.4473 2.86739 10.5 3 10.5L9 10.5C9.1326 10.5 9.25975 10.4473 9.3535 10.3535C9.4473 10.2598 9.5 10.1326 9.5 10L9.5 3.70703L7.29295 1.5L3 1.5C2.86739 1.5 2.74026 1.55271 2.64649 1.64648C2.55272 1.74025 2.5 1.86739 2.5 2L2.5 10Z" fill="#2F9E5B"/>
<path d="M6.5 3L6.5 1C6.5 0.72386 6.72385 0.5 7 0.5C7.27615 0.5 7.5 0.72386 7.5 1L7.5 3C7.5 3.13261 7.5527 3.25974 7.6465 3.35351C7.74025 3.44728 7.8674 3.5 8 3.5L10 3.5C10.2761 3.5 10.5 3.72386 10.5 4C10.5 4.27614 10.2761 4.5 10 4.5L8 4.5C7.6022 4.5 7.22075 4.34185 6.93945 4.06054C6.65815 3.77924 6.5 3.39783 6.5 3Z" fill="#2F9E5B"/>
<path d="M5 4C5.27615 4 5.5 4.22386 5.5 4.5C5.5 4.77614 5.27615 5 5 5H4C3.72386 5 3.5 4.77614 3.5 4.5C3.5 4.22386 3.72386 4 4 4H5Z" fill="#2F9E5B"/>
<path d="M8 6C8.27615 6 8.5 6.22385 8.5 6.5C8.5 6.77615 8.27615 7 8 7L4 7C3.72386 7 3.5 6.77615 3.5 6.5C3.5 6.22385 3.72386 6 4 6L8 6Z" fill="#2F9E5B"/>
<path d="M8 8C8.27615 8 8.5 8.22385 8.5 8.5C8.5 8.77615 8.27615 9 8 9L4 9C3.72386 9 3.5 8.77615 3.5 8.5C3.5 8.22385 3.72386 8 4 8L8 8Z" fill="#2F9E5B"/>
</svg>
