<svg width="16" height="16" viewBox="0 0 16 16" fill="none" xmlns="http://www.w3.org/2000/svg">
<g clip-path="url(#clip0_5446_1737)">
<path d="M14.0289 7.99988C14.0289 4.66961 11.3292 1.96988 7.99891 1.96988C4.66863 1.96988 1.96891 4.66961 1.96891 7.99988C1.96891 11.3302 4.66863 14.0299 7.99891 14.0299C11.3292 14.0299 14.0289 11.3302 14.0289 7.99988ZM15.3689 7.99988C15.3689 12.0702 12.0692 15.3699 7.99891 15.3699C3.92857 15.3699 0.628906 12.0702 0.628906 7.99988C0.628906 3.92955 3.92857 0.629883 7.99891 0.629883C12.0692 0.629883 15.3689 3.92955 15.3689 7.99988Z" fill="#5A5F68"/>
<path d="M10.0058 7.78267C9.95785 5.78411 9.24893 3.8628 7.99844 2.31535C6.70272 3.91879 5.98844 5.92365 5.98844 7.99988L5.99106 8.2171C6.03902 10.2155 6.74815 12.1364 7.99844 13.6838C9.29395 12.0804 10.0084 10.0759 10.0084 7.99988L10.0058 7.78267ZM11.3452 8.24979C11.2832 10.8262 10.2653 13.2913 8.48392 15.1618C8.35749 15.2946 8.18182 15.3699 7.99844 15.3699C7.81506 15.3699 7.63938 15.2946 7.51296 15.1618C5.73157 13.2913 4.71368 10.8262 4.65171 8.24979L4.64844 7.99988C4.64844 5.33336 5.67403 2.76892 7.51296 0.837951L7.56267 0.790837C7.68347 0.687409 7.83791 0.629883 7.99844 0.629883C8.18182 0.629883 8.35749 0.705171 8.48392 0.837951C10.3229 2.76892 11.3484 5.33336 11.3484 7.99988L11.3452 8.24979Z" fill="#5A5F68"/>
<path d="M14.6989 7.33008C15.0689 7.33008 15.3689 7.63004 15.3689 8.00008C15.3689 8.37012 15.0689 8.67008 14.6989 8.67008L1.29891 8.67008C0.928879 8.67008 0.628906 8.37012 0.628906 8.00008C0.628906 7.63004 0.928879 7.33008 1.29891 7.33008L14.6989 7.33008Z" fill="#5A5F68"/>
</g>
<defs>
<clipPath id="clip0_5446_1737">
<rect width="16" height="16" fill="white"/>
</clipPath>
</defs>
</svg>
