<svg width="20" height="20" viewBox="0 0 20 20" fill="none" xmlns="http://www.w3.org/2000/svg">
<path d="M9.99922 1.69971C11.6408 1.69971 13.2455 2.18669 14.6104 3.09871C15.9753 4.01071 17.0396 5.30661 17.6678 6.82317C18.296 8.33979 18.4598 10.0092 18.1395 11.6192C17.8192 13.2292 17.0291 14.7081 15.8684 15.8689C14.7076 17.0296 13.2287 17.8197 11.6187 18.14C10.0087 18.4603 8.3393 18.2965 6.82268 17.6683C5.30612 17.0401 4.01022 15.9758 3.09823 14.6109C2.1862 13.246 1.69922 11.6413 1.69922 9.99971C1.69922 9.5413 2.07083 9.16971 2.52922 9.16971C2.98761 9.16971 3.35922 9.5413 3.35922 9.99971C3.35922 11.313 3.74897 12.5965 4.47858 13.6885C5.20816 14.7804 6.24493 15.6313 7.45816 16.1339C8.67138 16.6365 10.0065 16.7686 11.2944 16.5125C12.5825 16.2562 13.7661 15.6238 14.6947 14.6952C15.6233 13.7666 16.2558 12.583 16.512 11.2949C16.7681 10.007 16.636 8.67187 16.1334 7.45865C15.6309 6.24542 14.7799 5.20865 13.688 4.47907C12.5965 3.74976 11.3135 3.36003 10.0009 3.35971C8.12725 3.36714 6.32903 4.0984 4.98194 5.40066L3.11605 7.26654C2.79192 7.59068 2.26652 7.59068 1.94238 7.26654C1.61824 6.94241 1.61824 6.417 1.94238 6.09287L3.81798 4.21726L4.14464 3.91574C5.75993 2.49819 7.83727 1.70786 9.99598 1.69971H9.99922Z" fill="white"/>
<path d="M1.67578 2.5048C1.67578 2.04641 2.04739 1.6748 2.50578 1.6748C2.96417 1.6748 3.33578 2.04641 3.33578 2.5048L3.33578 5.8248L6.65578 5.8248C7.11417 5.8248 7.48578 6.19641 7.48578 6.6548C7.48578 7.1132 7.11417 7.4848 6.65578 7.4848L2.50578 7.4848C2.04739 7.4848 1.67578 7.1132 1.67578 6.6548L1.67578 2.5048Z" fill="white"/>
<path d="M9.17969 5.84465C9.17969 5.38626 9.55128 5.01465 10.0097 5.01465C10.4681 5.01465 10.8397 5.38626 10.8397 5.84465L10.8397 9.48154L13.7009 10.9122L13.7747 10.9543C14.1301 11.1796 14.2644 11.6415 14.0721 12.0259C13.88 12.4103 13.4296 12.5803 13.0363 12.4311L12.9584 12.3971L9.63843 10.7371C9.35731 10.5965 9.17969 10.3091 9.17969 9.99465L9.17969 5.84465Z" fill="white"/>
</svg>
