<svg width="18" height="18" viewBox="0 0 18 18" fill="none" xmlns="http://www.w3.org/2000/svg">
<path d="M9 1.5C10.4833 1.5 11.9334 1.94005 13.1668 2.76416C14.4001 3.58825 15.3618 4.75925 15.9295 6.12964C16.4971 7.50007 16.6451 9.00855 16.3557 10.4634C16.0663 11.9182 15.3523 13.2546 14.3035 14.3035C13.2546 15.3523 11.9182 16.0663 10.4634 16.3557C9.00855 16.6451 7.50007 16.4971 6.12964 15.9295C4.75925 15.3618 3.58825 14.4001 2.76416 13.1668C1.94005 11.9334 1.5 10.4833 1.5 9C1.5 8.58577 1.83579 8.25 2.25 8.25C2.66421 8.25 3 8.58577 3 9C3 10.1867 3.35219 11.3465 4.01147 12.3332C4.67073 13.3199 5.60757 14.0888 6.70386 14.5429C7.80015 14.9971 9.0066 15.1165 10.1704 14.885C11.3343 14.6535 12.4038 14.082 13.2429 13.2429C14.082 12.4038 14.6535 11.3343 14.885 10.1704C15.1165 9.0066 14.9971 7.80015 14.5429 6.70386C14.0888 5.60757 13.3199 4.67073 12.3332 4.01147C11.347 3.35245 10.1876 3.00029 9.0015 3C7.30847 3.00672 5.68356 3.66749 4.46631 4.84423L2.78027 6.53027C2.48738 6.82317 2.01262 6.82317 1.71973 6.53027C1.42683 6.23738 1.42683 5.76262 1.71973 5.46973L3.41455 3.7749L3.70972 3.50244C5.16932 2.22152 7.04643 1.50737 8.99708 1.5H9Z" fill="white"/>
<path d="M1.50391 2.25488C1.50391 1.84067 1.8397 1.50488 2.25391 1.50488C2.66812 1.50488 3.00391 1.84067 3.00391 2.25488L3.00391 5.25488L6.00391 5.25488C6.41812 5.25488 6.75391 5.59067 6.75391 6.00488C6.75391 6.41909 6.41812 6.75488 6.00391 6.75488L2.25391 6.75488C1.8397 6.75488 1.50391 6.41909 1.50391 6.00488L1.50391 2.25488Z" fill="white"/>
<path d="M8.25 5.25488C8.25 4.84067 8.58578 4.50488 9 4.50488C9.41422 4.50488 9.75 4.84067 9.75 5.25488V8.54123L12.3355 9.83401L12.4021 9.87203C12.7232 10.0756 12.8446 10.493 12.6709 10.8404C12.4973 11.1877 12.0903 11.3414 11.7349 11.2065L11.6645 11.1758L8.66453 9.67576C8.4105 9.54871 8.25 9.28898 8.25 9.00488L8.25 5.25488Z" fill="white"/>
</svg>
