<svg width="12" height="12" viewBox="0 0 12 12" fill="none" xmlns="http://www.w3.org/2000/svg">
<path d="M7 10.5L7 6.5L5 6.5L5 10.5C5 10.7761 4.77614 11 4.5 11C4.22386 11 4 10.7761 4 10.5L4 6.5C4 6.2348 4.10544 5.9805 4.29297 5.79295C4.48051 5.60545 4.73478 5.5 5 5.5L7 5.5C7.2652 5.5 7.5195 5.60545 7.70705 5.79295C7.89455 5.9805 8 6.2348 8 6.5L8 10.5C8 10.7761 7.77615 11 7.5 11C7.22385 11 7 10.7761 7 10.5Z" fill="#565D6D"/>
<path d="M10 4.99951L9.99705 4.94531C9.9912 4.89133 9.97655 4.83853 9.9536 4.78906C9.923 4.72309 9.8783 4.66462 9.82275 4.61767L9.8203 4.61523L6.32275 1.61767C6.24375 1.5509 6.1463 1.51098 6.04395 1.50196L6 1.5C5.88185 1.5 5.7675 1.54189 5.67725 1.61817L5.67675 1.61767L2.17969 4.61523L2.17724 4.61767C2.12171 4.66462 2.077 4.72309 2.04639 4.78906C2.0158 4.85499 2 4.92683 2 4.99951L2 9.49953C2 9.63212 2.05272 9.75973 2.14649 9.85353C2.24024 9.94723 2.36746 9.99953 2.5 9.99953L9.5 9.99953C9.63255 9.99953 9.75975 9.94723 9.8535 9.85353C9.9473 9.75973 10 9.63212 10 9.49953V4.99951ZM11 9.49953C11 9.89733 10.8418 10.2792 10.5605 10.5605C10.2793 10.8418 9.89775 10.9995 9.5 10.9995L2.5 10.9995C2.10223 10.9995 1.72075 10.8418 1.43946 10.5605C1.15815 10.2792 1 9.89733 1 9.49953L1 4.99951C1 4.78146 1.0474 4.56597 1.13916 4.36817C1.23099 4.17026 1.36512 3.99484 1.53174 3.854L5.0293 0.856445L5.03175 0.85449L5.1367 0.773435C5.38855 0.59617 5.6899 0.5 6 0.5L6.1323 0.50586C6.39525 0.52914 6.6474 0.621505 6.8633 0.773435L6.96825 0.85449L6.9707 0.856445L10.4683 3.854L10.5293 3.90821C10.6678 4.03886 10.7805 4.19498 10.8609 4.36817C10.9526 4.56597 11 4.78146 11 4.99951V9.49953Z" fill="#565D6D"/>
</svg>
