<svg width="20" height="20" viewBox="0 0 20 20" fill="none" xmlns="http://www.w3.org/2000/svg">
<path d="M11.6597 17.4846L11.6597 10.8446L8.33969 10.8446L8.33969 17.4846C8.33969 17.943 7.96808 18.3146 7.50969 18.3146C7.0513 18.3146 6.67969 17.943 6.67969 17.4846L6.67969 10.8446C6.67969 10.4043 6.85471 9.9822 7.16602 9.67087C7.47733 9.35962 7.89943 9.18457 8.33969 9.18457L11.6597 9.18457C12.0999 9.18457 12.5221 9.35962 12.8334 9.67087C13.1446 9.9822 13.3197 10.4043 13.3197 10.8446L13.3197 17.4846C13.3197 17.943 12.9481 18.3146 12.4897 18.3146C12.0313 18.3146 11.6597 17.943 11.6597 17.4846Z" fill="white"/>
<path d="M16.6392 8.33442L16.6343 8.24445C16.6246 8.15485 16.6003 8.0672 16.5622 7.98507C16.5114 7.87557 16.4372 7.7785 16.345 7.70057L16.3409 7.69652L10.535 2.72057C10.4038 2.60974 10.2421 2.54346 10.0722 2.52848L9.99922 2.52523C9.80309 2.52523 9.61327 2.59477 9.46345 2.72139L9.46262 2.72057L3.6575 7.69652L3.65345 7.70057C3.56126 7.7785 3.48703 7.87557 3.43622 7.98507C3.38545 8.09453 3.35922 8.21377 3.35922 8.33442L3.35922 15.8044C3.35922 16.0246 3.44673 16.2364 3.60238 16.3921C3.75802 16.5476 3.96919 16.6344 4.18922 16.6344L15.8092 16.6344C16.0293 16.6344 16.2404 16.5476 16.396 16.3921C16.5517 16.2364 16.6392 16.0246 16.6392 15.8044L16.6392 8.33442ZM18.2992 15.8044C18.2992 16.4648 18.0367 17.0987 17.5697 17.5657C17.1028 18.0326 16.4695 18.2944 15.8092 18.2944L4.18922 18.2944C3.52893 18.2944 2.89566 18.0326 2.42871 17.5657C1.96175 17.0987 1.69922 16.4648 1.69922 15.8044L1.69922 8.33442C1.69922 7.97246 1.77789 7.61474 1.93022 7.28639C2.08265 6.95787 2.30533 6.66667 2.58191 6.43288L8.38786 1.45693L8.39192 1.45369L8.56614 1.31914C8.98421 1.02488 9.48445 0.865234 9.99922 0.865234L10.2188 0.874962C10.6553 0.913607 11.0739 1.06693 11.4323 1.31914L11.6065 1.45369L11.6106 1.45693L17.4165 6.43288L17.5179 6.52285C17.7478 6.73973 17.9349 6.99891 18.0682 7.28639C18.2205 7.61474 18.2992 7.97246 18.2992 8.33442V15.8044Z" fill="white"/>
</svg>
