<svg width="14" height="14" viewBox="0 0 14 14" fill="none" xmlns="http://www.w3.org/2000/svg">
<g clip-path="url(#clip0_5383_3842)">
<path d="M12.2211 7.00012C12.2211 4.11719 9.88404 1.78012 7.00109 1.78012C4.11817 1.78012 1.78109 4.11719 1.78109 7.00012C1.78109 9.88307 4.11817 12.2201 7.00109 12.2201C9.88404 12.2201 12.2211 9.88307 12.2211 7.00012ZM13.3811 7.00012C13.3811 10.5237 10.5247 13.3801 7.00109 13.3801C3.47752 13.3801 0.621094 10.5237 0.621094 7.00012C0.621094 3.47654 3.47752 0.620117 7.00109 0.620117C10.5247 0.620117 13.3811 3.47654 13.3811 7.00012Z" fill="#CBD5E1"/>
<path d="M6.42187 9.32969L6.42188 7.00969C6.42188 6.68935 6.68154 6.42969 7.00187 6.42969C7.32221 6.42969 7.58187 6.68935 7.58187 7.00969L7.58187 9.32969C7.58187 9.65002 7.32221 9.90969 7.00187 9.90969C6.68154 9.90969 6.42187 9.65002 6.42187 9.32969Z" fill="#CBD5E1"/>
<path d="M7.00756 4.08984L7.06701 4.09267C7.35944 4.12239 7.58756 4.36954 7.58756 4.66984C7.58756 4.97014 7.35944 5.2173 7.06701 5.24701L7.00756 5.24984H7.00187C6.68154 5.24984 6.42188 4.99017 6.42188 4.66984C6.42188 4.34952 6.68154 4.08984 7.00187 4.08984H7.00756Z" fill="#CBD5E1"/>
</g>
<defs>
<clipPath id="clip0_5383_3842">
<rect width="14" height="14" fill="white"/>
</clipPath>
</defs>
</svg>
