<svg width="20" height="20" viewBox="0 0 20 20" fill="none" xmlns="http://www.w3.org/2000/svg">
<g clip-path="url(#clip0_5409_4406)">
<path d="M0.875 5.82556C0.875041 5.50381 0.968441 5.18892 1.1441 4.91936C1.3182 4.65233 1.56576 4.44087 1.85657 4.31065L8.96909 1.07413L9.09152 1.02225C9.38111 0.908453 9.68978 0.849656 10.0018 0.849609C10.3583 0.849609 10.7108 0.926232 11.0352 1.07413L18.1647 4.31956C18.4556 4.44977 18.7023 4.66043 18.8765 4.92747C19.0522 5.19704 19.1455 5.51187 19.1456 5.83366C19.1456 6.15559 19.0523 6.47098 18.8765 6.74066C18.7022 7.00792 18.4543 7.21839 18.1632 7.34857L18.164 7.34939L11.0433 10.5851L11.0441 10.5859C10.7601 10.7154 10.4545 10.7897 10.1436 10.8063L10.0107 10.8104C9.69858 10.8104 9.38932 10.7516 9.09965 10.6378L8.97723 10.5859L1.85576 7.34047C1.56544 7.21021 1.31797 6.99924 1.1441 6.73255C0.968284 6.46288 0.875 6.14749 0.875 5.82556ZM2.54473 5.82961L9.66538 9.07505L9.74888 9.1075C9.83312 9.13547 9.92152 9.15041 10.0107 9.15041L10.0991 9.1456C10.1874 9.13605 10.274 9.11207 10.3552 9.07505L17.4774 5.83772L17.4856 5.83366L17.4766 5.83042L10.3471 2.58499L10.3462 2.58418C10.2382 2.53497 10.1205 2.50961 10.0018 2.50961C9.91289 2.50965 9.82474 2.52389 9.74074 2.55176L9.65808 2.58418L9.65725 2.58499L2.535 5.82556L2.54473 5.82961Z" fill="white"/>
<path d="M18.2946 9.17483C18.7242 9.17151 19.0804 9.49521 19.1262 9.9132L19.1311 9.99836L19.1279 10.1183C19.1098 10.3984 19.0207 10.6704 18.8685 10.9078C18.6946 11.1788 18.4456 11.3933 18.1519 11.5254L11.0337 14.7611L11.0321 14.7619C10.7095 14.908 10.3592 14.9832 10.0052 14.9832C9.651 14.9832 9.30082 14.908 8.9782 14.7619L8.97737 14.7611L1.83889 11.5157L1.83402 11.5133C1.54588 11.3799 1.30194 11.1666 1.13128 10.8988C0.960689 10.6311 0.87031 10.3198 0.871099 10.0024L0.875963 9.9181C0.919438 9.49961 1.27373 9.17375 1.70353 9.17483C2.16161 9.17616 2.53118 9.54841 2.53029 10.0065L9.66228 13.2495H9.66311C9.7706 13.2981 9.88721 13.3232 10.0052 13.3232C10.1229 13.3232 10.2391 13.2979 10.3464 13.2495L17.4679 10.013L17.4711 10.0113L17.4743 9.92623C17.5137 9.50749 17.8649 9.17823 18.2946 9.17483Z" fill="white"/>
<path d="M18.2946 13.3448C18.7242 13.3414 19.0804 13.6651 19.1262 14.0831L19.1311 14.1683L19.1279 14.2882C19.1098 14.5683 19.0207 14.8403 18.8685 15.0777C18.6946 15.3487 18.4456 15.5633 18.1519 15.6953L11.0337 18.9311L11.0321 18.9318C10.7095 19.0779 10.3592 19.1531 10.0052 19.1531C9.651 19.1531 9.30082 19.0779 8.9782 18.9318L8.97737 18.9311L1.83889 15.6856L1.83402 15.6832C1.54588 15.5498 1.30194 15.3365 1.13128 15.0687C0.960689 14.8011 0.87031 14.4897 0.871099 14.1723L0.875963 14.088C0.919438 13.6695 1.27373 13.3437 1.70353 13.3448C2.16161 13.3461 2.53118 13.7183 2.53029 14.1764L9.66228 17.4194H9.66311C9.7706 17.468 9.88721 17.4931 10.0052 17.4931C10.1229 17.4931 10.2391 17.4678 10.3464 17.4194L17.4679 14.1829L17.4711 14.1812L17.4743 14.0962C17.5137 13.6774 17.8649 13.3482 18.2946 13.3448Z" fill="white"/>
</g>
<defs>
<clipPath id="clip0_5409_4406">
<rect width="20" height="20" fill="white"/>
</clipPath>
</defs>
</svg>
