<svg width="18" height="18" viewBox="0 0 18 18" fill="none" xmlns="http://www.w3.org/2000/svg">
<path d="M3.00391 3.00488L3.00391 8.25488H6.75391L6.75391 3.00488L3.00391 3.00488ZM8.25391 8.25488C8.25391 9.08333 7.58236 9.75488 6.75391 9.75488L3.00391 9.75488C2.17548 9.75488 1.50391 9.08333 1.50391 8.25488L1.50391 3.00488C1.50391 2.17646 2.17548 1.50488 3.00391 1.50488L6.75391 1.50488C7.58236 1.50488 8.25391 2.17646 8.25391 3.00488L8.25391 8.25488Z" fill="white"/>
<path d="M11.2539 3.00488V5.25488L15.0039 5.25488V3.00488L11.2539 3.00488ZM16.5039 5.25488C16.5039 6.08331 15.8324 6.75488 15.0039 6.75488L11.2539 6.75488C10.4255 6.75488 9.75391 6.08331 9.75391 5.25488L9.75391 3.00488C9.75391 2.17646 10.4255 1.50488 11.2539 1.50488L15.0039 1.50488C15.8324 1.50488 16.5039 2.17646 16.5039 3.00488V5.25488Z" fill="white"/>
<path d="M11.2539 9.75488L11.2539 15.0049H15.0039L15.0039 9.75488L11.2539 9.75488ZM16.5039 15.0049C16.5039 15.8333 15.8324 16.5049 15.0039 16.5049H11.2539C10.4255 16.5049 9.75391 15.8333 9.75391 15.0049L9.75391 9.75488C9.75391 8.92643 10.4255 8.25488 11.2539 8.25488L15.0039 8.25488C15.8324 8.25488 16.5039 8.92643 16.5039 9.75488V15.0049Z" fill="white"/>
<path d="M3.00391 12.7549L3.00391 15.0049L6.75391 15.0049L6.75391 12.7549L3.00391 12.7549ZM8.25391 15.0049C8.25391 15.8333 7.58236 16.5049 6.75391 16.5049H3.00391C2.17548 16.5049 1.50391 15.8333 1.50391 15.0049L1.50391 12.7549C1.50391 11.9264 2.17548 11.2549 3.00391 11.2549L6.75391 11.2549C7.58236 11.2549 8.25391 11.9264 8.25391 12.7549V15.0049Z" fill="white"/>
</svg>
