<svg width="20" height="20" viewBox="0 0 20 20" fill="none" xmlns="http://www.w3.org/2000/svg">
<path d="M3.34359 3.34457L3.34359 9.15457L7.49359 9.15457L7.49359 3.34457L3.34359 3.34457ZM9.15359 9.15457C9.15359 10.0714 8.41041 10.8146 7.49359 10.8146L3.34359 10.8146C2.4268 10.8146 1.68359 10.0714 1.68359 9.15457L1.68359 3.34457C1.68359 2.42778 2.4268 1.68457 3.34359 1.68457L7.49359 1.68457C8.41041 1.68457 9.15359 2.42778 9.15359 3.34457L9.15359 9.15457Z" fill="white"/>
<path d="M12.5037 3.3348L12.5037 5.8248L16.6537 5.8248V3.3348L12.5037 3.3348ZM18.3137 5.8248C18.3137 6.7416 17.5706 7.4848 16.6537 7.4848L12.5037 7.4848C11.5869 7.4848 10.8437 6.7416 10.8437 5.8248L10.8438 3.3348C10.8438 2.41801 11.5869 1.6748 12.5037 1.6748L16.6537 1.6748C17.5706 1.6748 18.3137 2.41801 18.3137 3.3348V5.8248Z" fill="white"/>
<path d="M12.5037 10.8446L12.5037 16.6546H16.6537V10.8446L12.5037 10.8446ZM18.3137 16.6546C18.3137 17.5714 17.5706 18.3146 16.6537 18.3146H12.5037C11.5869 18.3146 10.8437 17.5714 10.8437 16.6546L10.8438 10.8446C10.8438 9.92775 11.5869 9.18457 12.5037 9.18457L16.6537 9.18457C17.5706 9.18457 18.3137 9.92775 18.3137 10.8446V16.6546Z" fill="white"/>
<path d="M3.34359 14.1746L3.34359 16.6646H7.49359L7.49359 14.1746L3.34359 14.1746ZM9.15359 16.6646C9.15359 17.5815 8.41041 18.3246 7.49359 18.3246H3.34359C2.4268 18.3246 1.68359 17.5815 1.68359 16.6646L1.68359 14.1746C1.68359 13.2578 2.4268 12.5146 3.34359 12.5146L7.49359 12.5146C8.41041 12.5146 9.15359 13.2578 9.15359 14.1746V16.6646Z" fill="white"/>
</svg>
