<svg width="18" height="18" viewBox="0 0 18 18" fill="none" xmlns="http://www.w3.org/2000/svg">
<path d="M2.25733 8.25L2.33422 8.25367C2.71241 8.29207 3.00733 8.61165 3.00733 9C3.00733 9.38835 2.71241 9.70792 2.33422 9.74633L2.25733 9.75H2.25C1.83579 9.75 1.5 9.41422 1.5 9C1.5 8.58578 1.83579 8.25 2.25 8.25H2.25733Z" fill="white"/>
<path d="M2.25733 12.75L2.33422 12.7537C2.71241 12.7921 3.00733 13.1117 3.00733 13.5C3.00733 13.8884 2.71241 14.2079 2.33422 14.2463L2.25733 14.25H2.25C1.83579 14.25 1.5 13.9142 1.5 13.5C1.5 13.0858 1.83579 12.75 2.25 12.75H2.25733Z" fill="white"/>
<path d="M2.25733 3.75L2.33422 3.75366C2.71241 3.79208 3.00733 4.11168 3.00733 4.5C3.00733 4.88832 2.71241 5.20792 2.33422 5.24634L2.25733 5.25H2.25C1.83579 5.25 1.5 4.91421 1.5 4.5C1.5 4.08579 1.83579 3.75 2.25 3.75H2.25733Z" fill="white"/>
<path d="M15.7539 8.25C16.1681 8.25 16.5039 8.58578 16.5039 9C16.5039 9.41422 16.1681 9.75 15.7539 9.75L6.00391 9.75C5.5897 9.75 5.25391 9.41422 5.25391 9C5.25391 8.58578 5.5897 8.25 6.00391 8.25L15.7539 8.25Z" fill="white"/>
<path d="M15.7539 12.75C16.1681 12.75 16.5039 13.0858 16.5039 13.5C16.5039 13.9142 16.1681 14.25 15.7539 14.25L6.00391 14.25C5.5897 14.25 5.25391 13.9142 5.25391 13.5C5.25391 13.0858 5.5897 12.75 6.00391 12.75L15.7539 12.75Z" fill="white"/>
<path d="M15.7539 3.75C16.1681 3.75 16.5039 4.08579 16.5039 4.5C16.5039 4.91421 16.1681 5.25 15.7539 5.25L6.00391 5.25C5.5897 5.25 5.25391 4.91421 5.25391 4.5C5.25391 4.08579 5.5897 3.75 6.00391 3.75L15.7539 3.75Z" fill="white"/>
</svg>
