<svg width="16" height="16" viewBox="0 0 16 16" fill="none" xmlns="http://www.w3.org/2000/svg">
<path d="M13.3608 8.65453C13.3608 8.28449 13.0608 7.98453 12.6908 7.98453L3.31078 7.98453C2.94075 7.98453 2.64078 8.28449 2.64078 8.65453L2.64078 13.3445C2.64078 13.7146 2.94075 14.0145 3.31078 14.0145L12.6908 14.0145C13.0608 14.0145 13.3608 13.7146 13.3608 13.3445L13.3608 8.65453ZM14.7008 13.3445C14.7008 14.4547 13.8009 15.3545 12.6908 15.3545L3.31078 15.3545C2.20069 15.3545 1.30078 14.4547 1.30078 13.3445L1.30078 8.65453C1.30078 7.54441 2.20069 6.64453 3.31078 6.64453L12.6908 6.64453C13.8009 6.64453 14.7008 7.54441 14.7008 8.65453L14.7008 13.3445Z" fill="#5A5F68"/>
<path d="M10.6805 7.34453L10.6805 4.66453C10.6805 3.95375 10.3979 3.27228 9.8953 2.76969C9.39273 2.26709 8.71127 1.98453 8.00047 1.98453C7.28967 1.98453 6.60822 2.26709 6.10563 2.76969C5.60303 3.27228 5.32047 3.95375 5.32047 4.66453L5.32047 7.34453C5.32047 7.71457 5.0205 8.01453 4.65047 8.01453C4.28044 8.01453 3.98047 7.71457 3.98047 7.34453L3.98047 4.66453C3.98047 3.59836 4.4043 2.57616 5.1582 1.82226C5.9121 1.06837 6.9343 0.644531 8.00047 0.644531C9.06664 0.644531 10.0889 1.06837 10.8427 1.82226C11.5966 2.57616 12.0205 3.59836 12.0205 4.66453V7.34453C12.0205 7.71457 11.7205 8.01453 11.3505 8.01453C10.9804 8.01453 10.6805 7.71457 10.6805 7.34453Z" fill="#5A5F68"/>
</svg>
