<svg width="12" height="12" viewBox="0 0 12 12" fill="none" xmlns="http://www.w3.org/2000/svg">
<path d="M10.7315 3.07836C10.9644 2.93011 11.2736 2.99882 11.4219 3.23168C11.5702 3.46458 11.5015 3.77378 11.2686 3.92211L6.77301 6.78539C6.76731 6.78899 6.76171 6.79274 6.75591 6.79614C6.55566 6.91244 6.33136 6.98064 6.10111 6.99584L6.00251 6.99879C5.73791 6.99879 5.47786 6.92899 5.24906 6.79614C5.24326 6.79274 5.23721 6.78904 5.23151 6.78539L0.731501 3.92211L0.689996 3.89233C0.49102 3.73537 0.439194 3.4501 0.578181 3.23168C0.717201 3.01329 0.997726 2.93916 1.22418 3.05297L1.26861 3.07836L5.75396 5.93284C5.82956 5.97614 5.91536 5.99879 6.00251 5.99879L6.06791 5.99484C6.13191 5.98639 6.19366 5.96504 6.25006 5.93284L10.7315 3.07836Z" fill="#1E2128"/>
<path d="M10.5 3C10.5 2.72386 10.2761 2.5 10 2.5L2 2.5C1.72386 2.5 1.5 2.72386 1.5 3L1.5 9C1.5 9.27615 1.72386 9.5 2 9.5L10 9.5C10.2761 9.5 10.5 9.27615 10.5 9L10.5 3ZM11.5 9C11.5 9.82845 10.8285 10.5 10 10.5L2 10.5C1.17158 10.5 0.5 9.82845 0.5 9L0.5 3C0.5 2.17158 1.17158 1.5 2 1.5L10 1.5C10.8285 1.5 11.5 2.17158 11.5 3L11.5 9Z" fill="#1E2128"/>
</svg>
