<svg width="8" height="8" viewBox="0 0 8 8" fill="none" xmlns="http://www.w3.org/2000/svg">
<g clip-path="url(#clip0_5393_1928)">
<path d="M3.05722 2.39467C3.07352 2.06623 3.1562 1.74704 3.29763 1.45527C3.02698 1.52988 2.76853 1.64758 2.53257 1.80524C2.09845 2.09532 1.76011 2.50753 1.5603 2.98989C1.36049 3.47226 1.30795 4.0031 1.4098 4.51516C1.51166 5.02729 1.76311 5.49787 2.13232 5.86707C2.50153 6.23628 2.97211 6.48774 3.4842 6.58961C3.9963 6.69144 4.52714 6.63891 5.0095 6.43909C5.49186 6.23928 5.90409 5.90096 6.19416 5.46681C6.35187 5.2308 6.46919 4.97218 6.5438 4.70145C6.25208 4.84285 5.9331 4.92588 5.60472 4.94218L5.4842 4.94541C4.83971 4.94541 4.22162 4.68923 3.76589 4.23351C3.31015 3.77778 3.054 3.1597 3.054 2.5152L3.05722 2.39467ZM3.71626 2.60285C3.73794 3.0404 3.92129 3.45563 4.23251 3.76689C4.56449 4.09883 5.01474 4.28541 5.4842 4.28541L5.57185 4.28314C6.0094 4.26146 6.42464 4.07811 6.73589 3.76689C6.83027 3.67251 6.97221 3.64426 7.09553 3.69534C7.21881 3.74642 7.2992 3.86674 7.2992 4.0002C7.2992 4.65287 7.10559 5.29089 6.74295 5.83358C6.38038 6.37623 5.86512 6.79939 5.26215 7.04916C4.65917 7.29891 3.99544 7.36405 3.35531 7.2367C2.71522 7.10936 2.12717 6.7952 1.66568 6.33372C1.20419 5.87222 0.890032 5.28419 0.762688 4.64409C0.635358 4.00396 0.700477 3.34023 0.950247 2.73724C1.20001 2.13427 1.62317 1.61903 2.16583 1.25643C2.70851 0.893816 3.34653 0.700195 3.9992 0.700195L4.0485 0.70374C4.16166 0.720801 4.25934 0.795978 4.30406 0.903868C4.34877 1.0118 4.33273 1.13404 4.26475 1.22613L4.23251 1.26352C3.90057 1.59548 3.71398 2.04573 3.71398 2.5152L3.71626 2.60285Z" fill="#565D6D"/>
</g>
<defs>
<clipPath id="clip0_5393_1928">
<rect width="8" height="8" fill="white"/>
</clipPath>
</defs>
</svg>
