<svg width="12" height="12" viewBox="0 0 12 12" fill="none" xmlns="http://www.w3.org/2000/svg">
<g clip-path="url(#clip0_5385_2039)">
<path d="M3.55389 0.500033C3.91612 0.497646 4.26695 0.626574 4.54168 0.862824C4.78312 1.07046 4.95168 1.34857 5.02408 1.65628L5.04898 1.79007L5.04948 1.79446L5.07393 1.96048C5.13583 2.34552 5.23538 2.72373 5.37178 3.08939L5.40593 3.19095C5.47688 3.43042 5.48708 3.68434 5.43473 3.92972C5.37493 4.21016 5.23598 4.46751 5.03433 4.67142L5.03238 4.67386L4.67449 5.03128C5.26243 5.95373 6.04508 6.73578 6.96748 7.32378L7.32733 6.96438L7.40643 6.89213C7.59613 6.72963 7.82363 6.61633 8.06903 6.56398C8.34898 6.50428 8.64033 6.52608 8.90838 6.62648C9.27438 6.76308 9.65328 6.86338 10.0387 6.92533L10.2043 6.94923L10.2087 6.94973C10.5729 7.00113 10.9059 7.18468 11.1437 7.46538C11.3789 7.74288 11.5042 8.09653 11.4982 8.45998L11.4987 9.95803L11.4972 10.0362C11.4885 10.2183 11.4464 10.3975 11.3732 10.565C11.2895 10.7563 11.1668 10.9282 11.0129 11.0694C10.859 11.2105 10.6775 11.3184 10.4797 11.3853C10.3066 11.4438 10.1242 11.4698 9.94208 11.4629L9.86393 11.458C9.86093 11.4578 9.85768 11.4574 9.85468 11.4571C8.23848 11.2814 6.68598 10.7293 5.32193 9.84478C4.05371 9.03803 2.97823 7.96203 2.17205 6.69338C1.28584 5.32408 0.733977 3.76509 0.561702 2.1431L0.560722 2.13529C0.541987 1.92794 0.567047 1.71882 0.633477 1.52152C0.699942 1.32418 0.806577 1.14259 0.946952 0.988804C1.08735 0.834999 1.25842 0.712104 1.44891 0.627964C1.63935 0.543859 1.84521 0.500234 2.0534 0.500033L3.55389 0.500033ZM2.00262 1.50296C1.95103 1.50838 1.90036 1.52147 1.85272 1.54251C1.78923 1.57056 1.73252 1.61186 1.68572 1.66312C1.63897 1.71434 1.60339 1.77465 1.58123 1.84036C1.55992 1.90363 1.55138 1.97062 1.55633 2.03714L1.58953 2.31155C1.7633 3.58894 2.1981 4.81687 2.86688 5.91898L3.01336 6.15333L3.0158 6.15678L3.15545 6.36968C3.81909 7.35318 4.66556 8.20013 5.64908 8.86378L5.86198 9.00298L5.86588 9.00538L6.09928 9.15188C7.27243 9.86473 8.58853 10.3123 9.95523 10.4619C10.0242 10.468 10.0938 10.4602 10.1593 10.438C10.2252 10.4157 10.2858 10.3796 10.3371 10.3325C10.3883 10.2855 10.4293 10.2283 10.4572 10.1646C10.4851 10.1008 10.499 10.0316 10.4987 9.96193V8.45998L10.4992 8.44778C10.5022 8.32518 10.4598 8.20543 10.3805 8.11183C10.3022 8.01948 10.1931 7.95838 10.0734 7.94048C9.55608 7.87223 9.04818 7.74593 8.55928 7.56353L8.55778 7.56303C8.46843 7.52948 8.37133 7.52218 8.27803 7.54203C8.18453 7.56198 8.09843 7.60858 8.03043 7.67583L7.39763 8.30863C7.23848 8.46778 6.99223 8.50093 6.79658 8.38968C5.46663 7.63343 4.36529 6.53213 3.60906 5.20218C3.49789 5.00653 3.53148 4.76072 3.69061 4.60159L4.32293 3.96829C4.39014 3.90033 4.43678 3.8147 4.45672 3.72122C4.47666 3.62773 4.46936 3.53043 4.43572 3.44095L4.43524 3.43997C4.25333 2.9525 4.12716 2.44599 4.05877 1.93021L4.05047 1.88529C4.02632 1.78283 3.9702 1.69029 3.88983 1.62112C3.80934 1.55191 3.70922 1.51001 3.60418 1.5015L3.55877 1.50003L2.05438 1.50003L2.00262 1.50296Z" fill="#565D6D"/>
</g>
<defs>
<clipPath id="clip0_5385_2039">
<rect width="12" height="12" fill="white"/>
</clipPath>
</defs>
</svg>
