<svg width="16" height="16" viewBox="0 0 16 16" fill="none" xmlns="http://www.w3.org/2000/svg">
<path d="M12.6906 7.33008C13.0607 7.33008 13.3606 7.63004 13.3606 8.00008C13.3606 8.37012 13.0607 8.67008 12.6906 8.67008L3.31063 8.67008C2.9406 8.67008 2.64062 8.37012 2.64062 8.00008C2.64062 7.63004 2.9406 7.33008 3.31063 7.33008L12.6906 7.33008Z" fill="white"/>
<path d="M7.33203 12.6901L7.33203 3.31014C7.33203 2.94011 7.63199 2.64014 8.00203 2.64014C8.37207 2.64014 8.67203 2.94011 8.67203 3.31014L8.67203 12.6901C8.67203 13.0602 8.37207 13.3601 8.00203 13.3601C7.63199 13.3601 7.33203 13.0602 7.33203 12.6901Z" fill="white"/>
</svg>
