<svg width="12" height="12" viewBox="0 0 12 12" fill="none" xmlns="http://www.w3.org/2000/svg">
<g clip-path="url(#clip0_5393_2790)">
<path d="M13.939 11.167L0.739684 11.167C0.218985 11.167 -0.203125 11.5891 -0.203125 12.1098V12.1098C-0.203125 12.6305 0.218985 13.0526 0.739684 13.0526L13.939 13.0526C14.4597 13.0526 14.8818 12.6305 14.8818 12.1098C14.8818 11.5891 14.4597 11.167 13.939 11.167Z" fill="#DEE1E6"/>
<path d="M11.7286 11.167L6.07172 11.167C5.55102 11.167 5.12891 11.5891 5.12891 12.1098V12.1098C5.12891 12.6305 5.55102 13.0526 6.07172 13.0526L11.7286 13.0526C12.2493 13.0526 12.6714 12.6305 12.6714 12.1098C12.6714 11.5891 12.2493 11.167 11.7286 11.167Z" fill="#DEE1E6"/>
</g>
<defs>
<clipPath id="clip0_5393_2790">
<rect width="12" height="12" fill="white"/>
</clipPath>
</defs>
</svg>
