<svg width="14" height="14" viewBox="0 0 14 14" fill="none" xmlns="http://www.w3.org/2000/svg">
<path d="M6.99922 1.19922C8.14634 1.19922 9.26772 1.53952 10.2215 2.17684C11.1753 2.81414 11.919 3.71971 12.358 4.77947C12.797 5.83928 12.9114 7.00583 12.6876 8.13092C12.4638 9.25594 11.9116 10.2894 11.1006 11.1006C10.2894 11.9116 9.25594 12.4638 8.13092 12.6876C7.00583 12.9114 5.83928 12.797 4.77947 12.358C3.71971 11.919 2.81414 11.1753 2.17684 10.2215C1.53952 9.26772 1.19922 8.14634 1.19922 6.99922C1.19922 6.67888 1.4589 6.41922 1.77922 6.41922C2.09954 6.41922 2.35922 6.67888 2.35922 6.99922C2.35922 7.91695 2.63158 8.81387 3.14142 9.57691C3.65125 10.34 4.37574 10.9346 5.22354 11.2858C6.07134 11.637 7.00432 11.7293 7.90431 11.5503C8.80441 11.3713 9.63149 10.9293 10.2804 10.2804C10.9293 9.63149 11.3713 8.80441 11.5503 7.90431C11.7293 7.00432 11.637 6.07134 11.2858 5.22354C10.9346 4.37574 10.34 3.65125 9.57691 3.14142C8.81421 2.63178 7.91765 2.35945 7.00038 2.35922C5.6911 2.36442 4.43451 2.87541 3.49317 3.78543L2.1893 5.0893C1.96279 5.3158 1.59564 5.3158 1.36914 5.0893C1.14263 4.86279 1.14263 4.49564 1.36914 4.26914L2.6798 2.95847L2.90807 2.74777C4.03682 1.7572 5.48846 1.20491 6.99696 1.19922H6.99922Z" fill="#171A1F"/>
<path d="M1.17969 1.75969C1.17969 1.43937 1.43937 1.17969 1.75969 1.17969C2.08001 1.17969 2.33969 1.43937 2.33969 1.75969L2.33969 4.07969L4.65969 4.07969C4.98001 4.07969 5.23969 4.33937 5.23969 4.65969C5.23969 4.98001 4.98001 5.23969 4.65969 5.23969L1.75969 5.23969C1.43937 5.23969 1.17969 4.98001 1.17969 4.65969L1.17969 1.75969Z" fill="#171A1F"/>
</svg>
