<svg width="16" height="16" viewBox="0 0 16 16" fill="none" xmlns="http://www.w3.org/2000/svg">
<path d="M10.6219 10.6224C10.8672 10.3771 11.2551 10.362 11.5183 10.5766L11.5693 10.6224L14.477 13.5301L14.5235 13.5811C14.7379 13.8443 14.7222 14.2323 14.477 14.4775C14.2318 14.7227 13.8438 14.7384 13.5806 14.524L13.5296 14.4775L10.6219 11.5698L10.5761 11.5188C10.3615 11.2556 10.3766 10.8677 10.6219 10.6224Z" fill="#94A3B8"/>
<path d="M12.0208 7.3298C12.0208 4.73959 9.921 2.6398 7.33078 2.6398C4.74057 2.6398 2.64078 4.73959 2.64078 7.3298C2.64078 9.92002 4.74057 12.0198 7.33078 12.0198C9.921 12.0198 12.0208 9.92002 12.0208 7.3298ZM13.3608 7.3298C13.3608 10.6601 10.6611 13.3598 7.33078 13.3598C4.00051 13.3598 1.30078 10.6601 1.30078 7.3298C1.30078 3.99953 4.00051 1.2998 7.33078 1.2998C10.6611 1.2998 13.3608 3.99953 13.3608 7.3298Z" fill="#94A3B8"/>
</svg>
