<svg width="18" height="18" viewBox="0 0 18 18" fill="none" xmlns="http://www.w3.org/2000/svg">
<path d="M9.91633 3C9.91633 2.80108 9.83728 2.61038 9.69658 2.46973C9.55596 2.32914 9.36516 2.25 9.16633 2.25H8.83671C8.63788 2.25 8.44708 2.32914 8.30646 2.46973C8.16583 2.61038 8.08671 2.80108 8.08671 3V3.13549C8.08633 3.53006 7.98171 3.91816 7.78423 4.25977C7.58683 4.6012 7.30331 4.88506 6.96174 5.08228L6.96101 5.08154L6.64094 5.26831L6.63874 5.26978C6.29678 5.46713 5.90857 5.5708 5.51374 5.5708C5.11888 5.57075 4.7307 5.46721 4.38874 5.26978L4.29865 5.22143L4.27669 5.20972C4.10459 5.11046 3.90025 5.08369 3.70832 5.13501C3.54028 5.17995 3.39372 5.28138 3.29304 5.42139L3.25276 5.48364L3.08796 5.76856C2.98933 5.94032 2.96288 6.14406 3.01399 6.33545C3.0589 6.50344 3.16043 6.65006 3.30037 6.75074L3.36262 6.79102L3.40291 6.81592L3.51496 6.89063C3.83684 7.08561 4.10485 7.35733 4.29426 7.68307C4.49162 8.0226 4.59658 8.4081 4.59895 8.8008V9.18458L4.59455 9.33255C4.57319 9.67755 4.47301 10.0139 4.30012 10.3147C4.10461 10.6549 3.8228 10.937 3.4842 11.135L3.48493 11.1358L3.37214 11.2031L3.36262 11.209C3.19069 11.3086 3.06531 11.4726 3.01399 11.6645C2.96288 11.8559 2.98933 12.0597 3.08796 12.2314L3.25202 12.5164C3.3516 12.6883 3.5164 12.8137 3.70832 12.865C3.90025 12.9163 4.10459 12.8895 4.27669 12.7903L4.29865 12.7786L4.38874 12.7302L4.51912 12.6607C4.82787 12.5084 5.1682 12.4292 5.51374 12.4292C5.85921 12.4292 6.19966 12.5086 6.50837 12.6607L6.63874 12.7302L6.64094 12.7317L6.96101 12.9177C7.30258 13.115 7.58683 13.3988 7.78423 13.7402C7.98171 14.0818 8.08633 14.4699 8.08671 14.8645V15C8.08671 15.1989 8.16583 15.3896 8.30646 15.5303C8.44708 15.6709 8.63788 15.75 8.83671 15.75H9.16633C9.36516 15.75 9.55596 15.6709 9.69658 15.5303C9.83728 15.3896 9.91633 15.1989 9.91633 15V14.8645L9.92143 14.7166C9.94438 14.3735 10.0461 14.0391 10.2188 13.7402C10.3915 13.4415 10.6303 13.1872 10.9161 12.9961L11.0413 12.9177L11.3621 12.7317L11.3644 12.7302L11.4947 12.6607C11.8034 12.5086 12.1438 12.4292 12.4894 12.4292C12.8842 12.4292 13.2724 12.5328 13.6144 12.7302L13.7264 12.7903C13.8985 12.8895 14.1028 12.9163 14.2948 12.865C14.4867 12.8137 14.6507 12.6883 14.7503 12.5164L14.9107 12.2314L14.9144 12.2256L14.9481 12.1589C15.019 12.002 15.034 11.8243 14.9891 11.6565C14.9377 11.4647 14.8123 11.3012 14.6404 11.2016L14.5511 11.1541C14.5438 11.1502 14.5363 11.1465 14.5291 11.1423C14.1858 10.9441 13.9005 10.6585 13.7029 10.3147C13.5054 9.97095 13.4026 9.58103 13.4041 9.18458V8.8125C13.4031 8.4171 13.5059 8.02815 13.7029 7.68532C13.8984 7.34519 14.1796 7.06222 14.5181 6.86425L14.6309 6.79688L14.6404 6.79102L14.7027 6.75074C14.8426 6.65006 14.9442 6.50344 14.9891 6.33545C15.0402 6.14406 15.0137 5.94032 14.9151 5.76856L14.7503 5.48291C14.6507 5.31099 14.4867 5.18634 14.2948 5.13501C14.1268 5.0901 13.9494 5.10505 13.7923 5.17603L13.7264 5.20972C13.7192 5.21386 13.7117 5.21754 13.7044 5.22143L13.6136 5.26904L13.6144 5.26978C13.2724 5.46721 12.8842 5.57075 12.4894 5.5708C12.0945 5.5708 11.7063 5.46713 11.3644 5.26978L11.3621 5.26831L11.0413 5.08154C10.6998 4.88433 10.4163 4.6012 10.2188 4.25977C10.0213 3.91816 9.91671 3.53006 9.91633 3.13549V3ZM11.4163 3.13403L11.4229 3.23218C11.4358 3.32935 11.468 3.42361 11.5174 3.50903C11.5668 3.59442 11.6323 3.66911 11.71 3.72876L11.7935 3.78442L12.1136 3.97046C12.2275 4.03621 12.3577 4.0708 12.4894 4.0708C12.6209 4.07075 12.7504 4.03624 12.8644 3.97046L12.8863 3.958L12.9984 3.89795C13.5102 3.6101 14.1143 3.53373 14.6822 3.68554C15.186 3.82027 15.6253 4.12508 15.9273 4.54468L16.0482 4.73144L16.213 5.01709L16.2137 5.01782L16.3155 5.21558C16.5283 5.6866 16.5732 6.21919 16.4386 6.7229C16.2856 7.29512 15.9123 7.78297 15.4015 8.0823L15.4021 8.08297L15.2791 8.157C15.1647 8.22308 15.0696 8.31855 15.0037 8.43307C14.938 8.5476 14.9036 8.6775 14.9041 8.80958V9.19042C14.9036 9.3225 14.938 9.4524 15.0037 9.56693C15.0685 9.67973 15.1619 9.7734 15.274 9.83932L15.3692 9.89063L15.3927 9.90382L15.5794 10.0247C15.9988 10.3267 16.3039 10.7654 16.4386 11.2691C16.5919 11.8424 16.5113 12.4526 16.2166 12.9675L16.2174 12.9683L16.0525 13.2612L16.0482 13.2686C15.7494 13.7843 15.258 14.1604 14.6822 14.3144C14.1142 14.4663 13.5102 14.3886 12.9984 14.1006V14.102L12.8863 14.042C12.879 14.038 12.8716 14.0337 12.8644 14.0296C12.7504 13.9638 12.6209 13.9292 12.4894 13.9292C12.3577 13.9292 12.2283 13.9638 12.1144 14.0296L12.1136 14.0288L11.7935 14.2156L11.71 14.2712C11.6323 14.3309 11.5668 14.4056 11.5174 14.491C11.4516 14.6048 11.4165 14.7344 11.4163 14.866V15C11.4163 15.5966 11.1797 16.1689 10.7579 16.5908C10.336 17.0128 9.76303 17.25 9.16633 17.25H8.83671C8.24001 17.25 7.66716 17.0128 7.24519 16.5908C6.82339 16.1689 6.58674 15.5966 6.58674 15V14.866L6.58015 14.7678C6.56725 14.6707 6.53504 14.5764 6.48567 14.491C6.43627 14.4056 6.37082 14.3309 6.29304 14.2712L6.20954 14.2156L5.88874 14.0288C5.77478 13.963 5.64532 13.9292 5.51374 13.9292C5.41512 13.9292 5.31791 13.9489 5.22736 13.9863L5.13874 14.0296C5.13154 14.0337 5.12411 14.038 5.11677 14.042L5.00471 14.102L5.00398 14.1006C4.49224 14.3883 3.88866 14.4662 3.32087 14.3144C2.81707 14.1797 2.37778 13.8749 2.07575 13.4553L1.9549 13.2686L1.79011 12.9829L1.78938 12.9822C1.49164 12.466 1.41069 11.8528 1.56452 11.2771C1.71751 10.705 2.0902 10.2163 2.6009 9.91702L2.72395 9.843L2.80598 9.7881C2.88408 9.7281 2.94994 9.65287 2.99934 9.56693C3.06511 9.4524 3.09947 9.3225 3.09895 9.19042V8.80958L3.09235 8.71215C3.0791 8.61548 3.04651 8.52165 2.99714 8.43675C2.94778 8.352 2.88264 8.27775 2.80525 8.2185L2.72395 8.16428L2.68294 8.1387L2.57087 8.064C2.07604 7.76325 1.71442 7.28345 1.56452 6.7229C1.41069 6.14722 1.49164 5.534 1.78938 5.01782L1.79011 5.01636L1.9549 4.73144L2.07575 4.54468C2.37778 4.12508 2.81707 3.82027 3.32087 3.68554C3.88855 3.53378 4.49231 3.61109 5.00398 3.89868L5.00471 3.89795L5.11677 3.958L5.13874 3.97046L5.22736 4.01367C5.31791 4.05115 5.41511 4.07076 5.51374 4.0708C5.61252 4.0708 5.71018 4.05122 5.80085 4.01367L5.88874 3.97046L6.20954 3.78442L6.29304 3.72876C6.37082 3.66911 6.43627 3.59442 6.48567 3.50903C6.5514 3.39532 6.58651 3.2661 6.58674 3.13477V3C6.58674 2.40339 6.82339 1.83111 7.24519 1.40918C7.66716 0.987225 8.24001 0.75 8.83671 0.75L9.16633 0.75C9.76303 0.75 10.336 0.987225 10.7579 1.40918C11.1797 1.83111 11.4163 2.40339 11.4163 3V3.13403Z" fill="white"/>
<path d="M10.5 9C10.5 8.17155 9.82845 7.5 9 7.5C8.17155 7.5 7.5 8.17155 7.5 9C7.5 9.82845 8.17155 10.5 9 10.5C9.82845 10.5 10.5 9.82845 10.5 9ZM12 9C12 10.6568 10.6568 12 9 12C7.34314 12 6 10.6568 6 9C6 7.34314 7.34314 6 9 6C10.6568 6 12 7.34314 12 9Z" fill="white"/>
</svg>
