<svg width="16" height="16" viewBox="0 0 16 16" fill="none" xmlns="http://www.w3.org/2000/svg">
<path d="M8.81812 2.63988C8.81812 2.46219 8.7475 2.29182 8.62181 2.16617C8.49619 2.04058 8.32574 1.96988 8.14812 1.96988L7.85366 1.96988C7.67604 1.96988 7.50559 2.04058 7.37997 2.16617C7.25434 2.29182 7.18366 2.46219 7.18366 2.63988V2.76092C7.18332 3.11341 7.08986 3.46011 6.91345 3.76528C6.7371 4.07029 6.48382 4.32387 6.17868 4.50005L6.17803 4.49939L5.89211 4.66624L5.89014 4.66755C5.58466 4.84385 5.23786 4.93646 4.88514 4.93646C4.5324 4.93642 4.18562 4.84392 3.88014 4.66755L3.79966 4.62436L3.78004 4.6139C3.6263 4.52523 3.44375 4.50131 3.2723 4.54716C3.12218 4.58731 2.99125 4.67792 2.90131 4.80299L2.86533 4.8586L2.71811 5.11313C2.63 5.26656 2.60637 5.44858 2.65203 5.61955C2.69215 5.76962 2.78285 5.9006 2.90786 5.99054L2.96348 6.02653L2.99946 6.04877L3.09957 6.11551C3.38711 6.28969 3.62653 6.53243 3.79574 6.82343C3.97205 7.12674 4.06581 7.47112 4.06792 7.82193V8.16477L4.064 8.29696C4.04492 8.60516 3.95542 8.90559 3.80098 9.17433C3.62631 9.47824 3.37457 9.73029 3.07208 9.90717L3.07274 9.90784L2.97198 9.96801L2.96348 9.97323C2.80988 10.0622 2.69787 10.2087 2.65203 10.3802C2.60637 10.5512 2.63 10.7332 2.71811 10.8866L2.86467 11.1412C2.95363 11.2947 3.10085 11.4068 3.2723 11.4526C3.44375 11.4984 3.6263 11.4745 3.78004 11.3859L3.79966 11.3754L3.88014 11.3322L3.99661 11.2701C4.27243 11.1341 4.57646 11.0633 4.88514 11.0633C5.19376 11.0633 5.49789 11.1342 5.77368 11.2701L5.89014 11.3322L5.89211 11.3335L6.17803 11.4997C6.48317 11.6759 6.7371 11.9295 6.91345 12.2345C7.08986 12.5397 7.18332 12.8863 7.18366 13.2388V13.3599C7.18366 13.5376 7.25434 13.7079 7.37997 13.8336C7.50559 13.9592 7.67604 14.0299 7.85366 14.0299H8.14812C8.32574 14.0299 8.49619 13.9592 8.62181 13.8336C8.7475 13.7079 8.81812 13.5376 8.81812 13.3599V13.2388L8.82268 13.1067C8.84318 12.8002 8.93403 12.5015 9.08833 12.2345C9.24263 11.9676 9.45596 11.7404 9.71123 11.5697L9.82312 11.4997L10.1097 11.3335L10.1117 11.3322L10.2281 11.2701C10.5039 11.1342 10.808 11.0633 11.1167 11.0633C11.4694 11.0633 11.8162 11.1559 12.1217 11.3322L12.2218 11.3859C12.3755 11.4745 12.5581 11.4984 12.7295 11.4526C12.901 11.4068 13.0475 11.2947 13.1365 11.1412L13.2798 10.8866L13.2831 10.8814L13.3132 10.8219C13.3765 10.6816 13.3899 10.523 13.3498 10.373C13.3039 10.2016 13.1918 10.0556 13.0383 9.96667L12.9585 9.92419C12.952 9.92071 12.9453 9.91742 12.9389 9.91367C12.6322 9.73659 12.3773 9.48145 12.2008 9.17433C12.0243 8.86726 11.9325 8.51893 11.9339 8.16477V7.83238C11.933 7.47916 12.0248 7.1317 12.2008 6.82544C12.3754 6.52159 12.6267 6.2688 12.929 6.09195L13.0298 6.03176L13.0383 6.02653L13.0939 5.99054C13.219 5.9006 13.3097 5.76962 13.3498 5.61955C13.3954 5.44858 13.3718 5.26656 13.2837 5.11313L13.1365 4.85795C13.0475 4.70437 12.901 4.59301 12.7295 4.54716C12.5794 4.50704 12.421 4.5204 12.2807 4.5838L12.2218 4.6139C12.2154 4.6176 12.2087 4.62089 12.2022 4.62436L12.121 4.66689L12.1217 4.66755C11.8162 4.84392 11.4694 4.93642 11.1167 4.93646C10.7639 4.93646 10.4171 4.84385 10.1117 4.66755L10.1097 4.66624L9.82312 4.49939C9.518 4.32322 9.26474 4.07029 9.08833 3.76528C8.91192 3.46011 8.81846 3.11341 8.81812 2.76092V2.63988ZM10.1581 2.75962L10.164 2.84729C10.1755 2.93411 10.2043 3.01831 10.2484 3.09462C10.2925 3.1709 10.351 3.23762 10.4205 3.29091L10.4951 3.34064L10.781 3.50683C10.8828 3.56556 10.9991 3.59646 11.1167 3.59646C11.2342 3.59642 11.3499 3.56559 11.4517 3.50683L11.4713 3.4957L11.5714 3.44205C12.0286 3.18491 12.5683 3.11668 13.0756 3.2523C13.5257 3.37266 13.9181 3.64496 14.1879 4.01979L14.2959 4.18664L14.4431 4.44181L14.4438 4.44247L14.5347 4.61913C14.7248 5.03992 14.7649 5.5157 14.6446 5.96568C14.508 6.47686 14.1745 6.91267 13.7182 7.18007L13.7188 7.18067L13.6089 7.2468C13.5066 7.30583 13.4217 7.39112 13.3629 7.49343C13.3041 7.59574 13.2734 7.71178 13.2739 7.82977V8.17C13.2734 8.28798 13.3041 8.40403 13.3629 8.50634C13.4208 8.6071 13.5042 8.69079 13.6043 8.74968L13.6894 8.79551L13.7103 8.8073L13.8772 8.91524C14.2518 9.18505 14.5243 9.577 14.6446 10.0269C14.7816 10.539 14.7096 11.0842 14.4464 11.5442L14.4471 11.5449L14.2998 11.8066L14.2959 11.8131C14.029 12.2739 13.59 12.6099 13.0756 12.7474C12.5682 12.8831 12.0286 12.8137 11.5714 12.5564V12.5577L11.4713 12.5041C11.4648 12.5005 11.4581 12.4967 11.4517 12.493C11.3499 12.4342 11.2342 12.4033 11.1167 12.4033C10.9991 12.4033 10.8835 12.4342 10.7817 12.493L10.781 12.4923L10.4951 12.6591L10.4205 12.7088C10.351 12.7622 10.2925 12.8288 10.2484 12.9052C10.1896 13.0069 10.1583 13.1226 10.1581 13.2402L10.1581 13.3599C10.1581 13.8929 9.94674 14.4041 9.56993 14.781C9.19299 15.158 8.68117 15.3699 8.14812 15.3699H7.85366C7.32061 15.3699 6.80886 15.158 6.4319 14.781C6.0551 14.4041 5.84368 13.8929 5.84368 13.3599V13.2402L5.8378 13.1525C5.82627 13.0657 5.7975 12.9815 5.7534 12.9052C5.70926 12.8288 5.6508 12.7622 5.58131 12.7088L5.50672 12.6591L5.22014 12.4923C5.11834 12.4335 5.00268 12.4033 4.88514 12.4033C4.79704 12.4033 4.7102 12.4209 4.62931 12.4543L4.55014 12.493C4.5437 12.4967 4.53707 12.5005 4.53051 12.5041L4.43041 12.5577L4.42975 12.5564C3.9726 12.8134 3.4334 12.883 2.92618 12.7474C2.47611 12.6271 2.08368 12.3548 1.81387 11.98L1.70591 11.8131L1.5587 11.5579L1.55804 11.5573C1.29206 11.0962 1.21975 10.5484 1.35717 10.0341C1.49384 9.52299 1.82677 9.08642 2.283 8.81909L2.39292 8.75296L2.46621 8.70392C2.53598 8.65032 2.59481 8.58312 2.63894 8.50634C2.69769 8.40403 2.72839 8.28798 2.72792 8.17V7.82977L2.72203 7.74274C2.7102 7.65637 2.68108 7.57256 2.63698 7.49671C2.59289 7.421 2.53469 7.35467 2.46555 7.30174L2.39292 7.2533L2.35629 7.23045L2.25618 7.16372C1.81412 6.89505 1.49108 6.46643 1.35717 5.96568C1.21975 5.4514 1.29207 4.90359 1.55804 4.44247L1.5587 4.44116L1.70591 4.18664L1.81387 4.01979C2.08368 3.64496 2.47611 3.37266 2.92618 3.2523C3.4333 3.11673 3.97266 3.18579 4.42975 3.4427L4.43041 3.44205L4.53051 3.4957L4.55014 3.50683L4.62931 3.54543C4.7102 3.57891 4.79703 3.59643 4.88514 3.59646C4.97338 3.59646 5.06062 3.57897 5.14163 3.54543L5.22014 3.50683L5.50672 3.34064L5.58131 3.29091C5.6508 3.23762 5.70926 3.1709 5.7534 3.09462C5.81211 2.99303 5.84348 2.8776 5.84368 2.76028V2.63988C5.84368 2.10691 6.0551 1.59567 6.4319 1.21875C6.80886 0.841804 7.32061 0.629883 7.85366 0.629883L8.14812 0.629883C8.68117 0.629883 9.19299 0.841804 9.56993 1.21875C9.94674 1.59567 10.1581 2.10691 10.1581 2.63988V2.75962Z" fill="#171A1F"/>
<path d="M9.34031 7.99982C9.34031 7.25974 8.74039 6.65982 8.00031 6.65982C7.26023 6.65982 6.66031 7.25974 6.66031 7.99982C6.66031 8.73991 7.26023 9.33982 8.00031 9.33982C8.74039 9.33982 9.34031 8.73991 9.34031 7.99982ZM10.6803 7.99982C10.6803 9.47992 9.48041 10.6798 8.00031 10.6798C6.52019 10.6798 5.32031 9.47992 5.32031 7.99982C5.32031 6.5197 6.52019 5.31982 8.00031 5.31982C9.48041 5.31982 10.6803 6.5197 10.6803 7.99982Z" fill="#171A1F"/>
</svg>
