<svg width="18" height="18" viewBox="0 0 18 18" fill="none" xmlns="http://www.w3.org/2000/svg">
<path d="M14.25 4.5C12.5104 4.5 10.478 3.49756 9.0828 2.28003C9.0597 2.2603 9.03038 2.25 9 2.25C8.96962 2.25 8.9403 2.26104 8.9172 2.28076L8.91652 2.28003C7.57282 3.45151 5.61698 4.43663 3.91406 4.49707L3.75 4.5L3.75 9.75002L3.75659 10.0591C3.82336 11.5781 4.38488 12.7042 5.23975 13.5798C6.05553 14.4153 7.16479 15.0484 8.44042 15.5427L8.99708 15.7463L9.01395 15.7514C10.5177 15.2267 11.8296 14.5361 12.7603 13.5813C13.6718 12.6461 14.25 11.4269 14.25 9.75002V4.5ZM15.75 9.75002C15.75 11.8231 15.0157 13.417 13.8347 14.6287C12.6741 15.8194 11.1153 16.6085 9.50167 17.1709L9.49583 17.1731C9.17475 17.2819 8.8266 17.278 8.50785 17.1635C8.50342 17.162 8.49907 17.1607 8.49465 17.1592C8.49345 17.1587 8.4921 17.1589 8.49097 17.1584V17.1577C6.87903 16.5993 5.32467 15.8138 4.16674 14.6279C3.05836 13.4927 2.34388 12.0212 2.25879 10.1338L2.25 9.75002L2.25 4.5C2.25009 4.1023 2.40823 3.72068 2.68945 3.43945C2.97074 3.15826 3.35225 3 3.75 3L3.99097 2.99121C5.21885 2.90082 6.79015 2.14693 7.9365 1.14551L7.9431 1.14038L8.05665 1.05103C8.33115 0.855785 8.66078 0.75 9 0.75C9.33922 0.75 9.66885 0.855785 9.94335 1.05103L10.0569 1.14038L10.0635 1.14551L10.2993 1.34399C11.5037 2.31544 13.0708 3 14.25 3C14.6477 3 15.0293 3.15826 15.3106 3.43945C15.5918 3.72068 15.7499 4.1023 15.75 4.5V9.75002Z" fill="white"/>
<path d="M10.7767 6.91926C11.0712 6.679 11.5055 6.69594 11.7801 6.97053C12.0547 7.24511 12.0717 7.67937 11.8314 7.97397L11.7801 8.03104L8.78007 11.031C8.50549 11.3057 8.07124 11.3226 7.77672 11.0823L7.71957 11.031L6.21955 9.53104L6.16828 9.47397C5.92802 9.17937 5.94496 8.74512 6.21955 8.47054C6.49413 8.19597 6.92839 8.17902 7.22297 8.41924L7.2801 8.47054L8.24982 9.44022L10.7196 6.97053L10.7767 6.91926Z" fill="white"/>
</svg>
