<svg width="12" height="12" viewBox="0 0 12 12" fill="none" xmlns="http://www.w3.org/2000/svg">
<path d="M9 2C9 1.72386 8.77615 1.5 8.5 1.5L3.5 1.5C3.22386 1.5 3 1.72386 3 2L3 10C3 10.2761 3.22386 10.5 3.5 10.5L8.5 10.5C8.77615 10.5 9 10.2761 9 10L9 2ZM10 10C10 10.8285 9.32845 11.5 8.5 11.5L3.5 11.5C2.67158 11.5 2 10.8285 2 10L2 2C2 1.17158 2.67158 0.5 3.5 0.5L8.5 0.5C9.32845 0.5 10 1.17158 10 2L10 10Z" fill="#1E2128"/>
<path d="M6.0049 8.5L6.05615 8.50245C6.30825 8.52805 6.5049 8.7411 6.5049 9C6.5049 9.2589 6.30825 9.47195 6.05615 9.49755L6.0049 9.5H6C5.72385 9.5 5.5 9.27615 5.5 9C5.5 8.72385 5.72385 8.5 6 8.5H6.0049Z" fill="#1E2128"/>
</svg>
