<svg width="18" height="18" viewBox="0 0 18 18" fill="none" xmlns="http://www.w3.org/2000/svg">
<path d="M11.25 15.75V14.25C11.25 13.6533 11.0128 13.0811 10.5908 12.6592C10.2217 12.29 9.73763 12.0622 9.22268 12.011L9 12L4.5 12C3.90326 12 3.33114 12.2372 2.90918 12.6592C2.48723 13.0811 2.25 13.6533 2.25 14.25L2.25 15.75C2.25 16.1642 1.91421 16.5 1.5 16.5C1.08579 16.5 0.75 16.1642 0.75 15.75L0.75 14.25C0.75 13.2554 1.14537 12.3019 1.84863 11.5986C2.5519 10.8954 3.50544 10.5 4.5 10.5H9L9.186 10.5044C10.1129 10.5504 10.9921 10.9393 11.6514 11.5986C12.3546 12.3019 12.75 13.2554 12.75 14.25V15.75C12.75 16.1642 12.4142 16.5 12 16.5C11.5858 16.5 11.25 16.1642 11.25 15.75Z" fill="white"/>
<path d="M13.4932 5.24963C13.4932 4.75127 13.3279 4.26685 13.023 3.87269C12.756 3.52769 12.3952 3.26871 11.9859 3.12561L11.8079 3.07142L11.7347 3.04871C11.3782 2.91663 11.1729 2.53326 11.2703 2.15735C11.3678 1.78154 11.7333 1.54674 12.1089 1.60437L12.1844 1.61975L12.3338 1.6615C13.0766 1.88724 13.7321 2.33894 14.2088 2.95496C14.7171 3.61194 14.9932 4.41893 14.9932 5.24963C14.9932 6.08034 14.7171 6.88733 14.2088 7.54435C13.7004 8.20127 12.9885 8.67107 12.1844 8.8795C11.7834 8.98345 11.3743 8.74277 11.2703 8.3419C11.1663 7.94102 11.407 7.53182 11.8079 7.42786C12.2904 7.30277 12.7179 7.02079 13.023 6.62659C13.328 6.23242 13.4932 5.74802 13.4932 5.24963Z" fill="white"/>
<path d="M15.7538 15.7555L15.7538 14.2563L15.7457 14.0703C15.7096 13.6381 15.5494 13.2241 15.2821 12.8794C15.0148 12.5345 14.6538 12.2758 14.2442 12.133L14.0663 12.0788L13.993 12.0561C13.6364 11.9244 13.4309 11.5414 13.5279 11.1655C13.625 10.7896 13.9901 10.5538 14.3658 10.6111L14.4413 10.6271L14.5907 10.6689C15.3338 10.894 15.9906 11.3444 16.4678 11.9602C16.9769 12.6168 17.2531 13.424 17.2538 14.2549V15.7555C17.2537 16.1698 16.9179 16.5055 16.5038 16.5055C16.0896 16.5055 15.7538 16.1698 15.7538 15.7555Z" fill="white"/>
<path d="M9 5.25C9 4.00736 7.99267 3 6.75 3C5.50736 3 4.5 4.00736 4.5 5.25C4.5 6.49264 5.50736 7.5 6.75 7.5C7.99267 7.5 9 6.49264 9 5.25ZM10.5 5.25C10.5 7.32106 8.82105 9 6.75 9C4.67894 9 3 7.32106 3 5.25C3 3.17894 4.67894 1.5 6.75 1.5C8.82105 1.5 10.5 3.17894 10.5 5.25Z" fill="white"/>
</svg>
