<svg width="20" height="20" viewBox="0 0 20 20" fill="none" xmlns="http://www.w3.org/2000/svg">
<path d="M14.9831 10.8248C14.763 10.8248 14.5519 10.9123 14.3963 11.068C14.2406 11.2236 14.1531 11.4347 14.1531 11.6548L14.1572 11.7367C14.176 11.9267 14.26 12.1054 14.3963 12.2416C14.5519 12.3973 14.763 12.4848 14.9831 12.4848H17.4731V10.8248H14.9831ZM4.19313 3.35482C3.97299 3.35482 3.76195 3.44233 3.60629 3.59799C3.45063 3.75365 3.36313 3.96469 3.36313 4.18482L3.36718 4.26669C3.38601 4.45676 3.47005 4.63542 3.60629 4.77166C3.76195 4.92732 3.97299 5.01482 4.19313 5.01482L14.9831 5.01482V3.35482L4.19313 3.35482ZM16.6431 5.01482C17.0834 5.01482 17.5055 5.18984 17.8168 5.50115C18.1281 5.81246 18.3031 6.23457 18.3031 6.67482L18.3031 9.38851C18.4275 9.46039 18.5435 9.54787 18.6468 9.65112C18.9581 9.96245 19.1331 10.3846 19.1331 10.8248V12.4848C19.1331 12.9251 18.9581 13.3472 18.6468 13.6585C18.3355 13.9698 17.9134 14.1448 17.4731 14.1448H14.9831C14.3227 14.1448 13.6896 13.8823 13.2226 13.4153C12.8141 13.0068 12.5619 12.4711 12.5052 11.9013L12.4931 11.6548C12.4931 10.9944 12.7557 10.3613 13.2226 9.89431C13.6896 9.42735 14.3227 9.16482 14.9831 9.16482H16.6431V6.67482L4.19313 6.67482C3.53274 6.67482 2.89959 6.41229 2.43262 5.94533C2.02409 5.53681 1.77194 5.00114 1.71528 4.43123L1.70312 4.18482C1.70312 3.52443 1.96565 2.89129 2.43262 2.42432C2.89959 1.95735 3.53274 1.69482 4.19313 1.69482L14.9831 1.69482L15.1469 1.70293C15.527 1.7406 15.8843 1.90867 16.1568 2.18115C16.4681 2.49246 16.6431 2.91457 16.6431 3.35482V5.01482Z" fill="white"/>
<path d="M1.69922 15.8099L1.69922 4.18986C1.69922 3.73147 2.07083 3.35986 2.52922 3.35986C2.98761 3.35986 3.35922 3.73147 3.35922 4.18986L3.35922 15.8099C3.35922 16.03 3.44673 16.241 3.60238 16.3967C3.75804 16.5524 3.96909 16.6399 4.18922 16.6399L16.6392 16.6399L16.6392 13.3199C16.6392 12.8615 17.0108 12.4899 17.4692 12.4899C17.9276 12.4899 18.2992 12.8615 18.2992 13.3199V16.6399C18.2992 17.0801 18.1242 17.5022 17.8129 17.8136C17.5016 18.1248 17.0795 18.2999 16.6392 18.2999L4.18922 18.2999C3.52883 18.2999 2.89568 18.0373 2.42871 17.5704C1.96175 17.1034 1.69922 16.4702 1.69922 15.8099Z" fill="white"/>
</svg>
