<svg width="16" height="16" viewBox="0 0 16 16" fill="none" xmlns="http://www.w3.org/2000/svg">
<path d="M8.90444 0.632746C9.07355 0.616113 9.24434 0.642729 9.40038 0.709951L9.47696 0.74725L9.55026 0.790431C9.6927 0.882971 9.80914 1.01024 9.88914 1.16011L9.92646 1.23666L9.95655 1.31649C10.01 1.47752 10.0221 1.64954 9.99125 1.81637L9.97162 1.89946C9.96921 1.90813 9.96713 1.91707 9.96438 1.92564L8.67805 5.95872L8.66693 5.99013L13.3589 5.99013C13.6118 5.98964 13.8598 6.06046 14.074 6.19493C14.2888 6.32973 14.4606 6.52303 14.57 6.75175C14.6794 6.98042 14.7221 7.23536 14.6924 7.48714C14.6663 7.70744 14.586 7.91735 14.4594 8.09825L14.4019 8.17416L14.3626 8.21865L7.72933 15.0528L7.72866 15.0521C7.58213 15.2088 7.39004 15.316 7.17839 15.3551C6.95428 15.3966 6.72252 15.3605 6.5215 15.253C6.3205 15.1455 6.16194 14.9724 6.07199 14.7629C5.98215 14.5536 5.96642 14.3199 6.02685 14.1001L6.03404 14.074L7.32036 10.0409L7.33149 10.0102L2.6389 10.0102C2.38623 10.0105 2.13844 9.93901 1.9244 9.80467C1.7098 9.66993 1.53788 9.47711 1.42845 9.2485C1.31899 9.01977 1.27634 8.7643 1.30609 8.51244C1.33588 8.26072 1.43689 8.02227 1.59661 7.82542L1.63586 7.78094L8.26915 0.947466C8.41568 0.790652 8.60837 0.684343 8.82002 0.645175L8.90444 0.632746ZM2.64086 8.67016L7.32887 8.67016C7.54501 8.66976 7.75807 8.72155 7.94983 8.82125C8.14205 8.92128 8.30754 9.06613 8.43136 9.24395C8.55524 9.42183 8.63397 9.62759 8.66103 9.84266C8.68669 10.0467 8.66278 10.2531 8.59564 10.4472L8.59758 10.4479L7.74896 13.1082L13.3576 7.33016L8.66887 7.33016C8.45307 7.33043 8.24014 7.27857 8.04865 7.17901C7.85636 7.07898 7.69094 6.93352 7.56706 6.75564C7.44331 6.57786 7.36452 6.37256 7.33738 6.15763C7.31165 5.95326 7.33484 5.74611 7.40217 5.55175H7.4009L8.24885 2.89073L2.64086 8.67016Z" fill="white"/>
</svg>
